<svg xmlns="http://www.w3.org/2000/svg" width="100%" fill="none" viewBox="0 0 90 55"><g clip-path="url(#clip0_37_58)"><path fill="#252F3E" d="M25.4505 20.1524C25.4505 21.2553 25.57 22.1493 25.7785 22.805C26.0432 23.5426 26.3619 24.2597 26.732 24.9505C26.881 25.1889 26.9404 25.4273 26.9404 25.6361C26.9404 25.9339 26.7618 26.232 26.3744 26.5301L24.4971 27.7817C24.2288 27.9606 23.9606 28.0499 23.7219 28.0499C23.4241 28.0499 23.126 27.9009 22.8279 27.6326C22.4264 27.2011 22.0672 26.7321 21.7552 26.232C21.4571 25.7257 21.159 25.159 20.8313 24.4738C18.5068 27.2153 15.586 28.5864 12.0697 28.5864C9.56656 28.5864 7.56969 27.871 6.1093 26.4408C4.64926 25.01 3.9043 23.1027 3.9043 20.7188C3.9043 18.1858 4.79832 16.1295 6.61625 14.5798C8.43383 13.0301 10.848 12.2553 13.9175 12.2553C14.9307 12.2553 15.9738 12.3446 17.0763 12.4936C18.1791 12.6427 19.3115 12.8811 20.5037 13.1493V10.9738C20.5037 8.70871 20.0266 7.12949 19.1027 6.20559C18.1493 5.28168 16.5398 4.83449 14.2452 4.83449C13.2021 4.83449 12.1295 4.95402 11.0266 5.22227C9.9241 5.49016 8.85113 5.81816 7.80805 6.23547C7.33133 6.44395 6.97379 6.56313 6.76496 6.62289C6.55648 6.68266 6.40742 6.71219 6.28824 6.71219C5.87094 6.71219 5.66246 6.41406 5.66246 5.78828V4.32789C5.66246 3.85117 5.72223 3.49363 5.87094 3.28516C6.02 3.07633 6.28824 2.86785 6.70555 2.65937C7.74863 2.12289 9.0002 1.6757 10.4602 1.31816C11.921 0.930742 13.4707 0.752148 15.1096 0.752148C18.6562 0.752148 21.249 1.55652 22.9179 3.16598C24.5568 4.77508 25.3914 7.21879 25.3914 10.4971V20.1524H25.4512H25.4505ZM13.3511 24.6823C14.3348 24.6823 15.348 24.5037 16.4206 24.1458C17.4936 23.7883 18.4474 23.1326 19.2518 22.2386C19.7288 21.6726 20.0864 21.0468 20.265 20.3314C20.4439 19.6163 20.5631 18.7518 20.5631 17.7386V16.487C19.6593 16.2671 18.7439 16.0979 17.8213 15.9804C16.8921 15.8624 15.9566 15.8027 15.02 15.8015C13.0231 15.8015 11.5631 16.1889 10.5798 16.9936C9.59609 17.7984 9.11937 18.9307 9.11937 20.4207C9.11937 21.8213 9.47691 22.8644 10.2219 23.5798C10.9373 24.3248 11.9804 24.6823 13.3511 24.6823ZM37.2816 27.9009C36.7452 27.9009 36.3876 27.8116 36.1493 27.6027C35.9109 27.4241 35.7021 27.0068 35.5235 26.4408L28.5204 3.40434C28.3411 2.80809 28.2518 2.42066 28.2518 2.21219C28.2518 1.73547 28.4901 1.46688 28.9672 1.46688H31.8876C32.4536 1.46688 32.8414 1.55652 33.0499 1.765C33.2882 1.94395 33.4672 2.36125 33.6458 2.92727L38.6524 22.6559L43.3014 2.92727C43.4505 2.33137 43.6295 1.94395 43.8675 1.765C44.1062 1.58641 44.5235 1.46723 45.06 1.46723H47.4439C48.0099 1.46723 48.3977 1.55652 48.6357 1.765C48.8744 1.94395 49.0829 2.36125 49.2021 2.92727L53.9109 22.8943L59.0662 2.92727C59.2448 2.33137 59.4536 1.94395 59.6621 1.765C59.9005 1.58641 60.2879 1.46723 60.8244 1.46723H63.5957C64.0728 1.46723 64.3411 1.70559 64.3411 2.21219C64.3411 2.36125 64.3112 2.51031 64.2813 2.68891C64.2514 2.86785 64.192 3.10621 64.0728 3.43422L56.8904 26.4704C56.7118 27.0666 56.5033 27.454 56.2646 27.6326C56.0263 27.8116 55.6388 27.9307 55.1326 27.9307H52.5697C52.0033 27.9307 51.6159 27.8414 51.3772 27.6326C51.1388 27.4241 50.9304 27.0367 50.8112 26.4408L46.1916 7.21879L41.6023 26.4106C41.4536 27.0068 41.2747 27.3943 41.0363 27.6027C40.798 27.8116 40.3807 27.9009 39.8445 27.9009H37.2813H37.2816ZM75.5763 28.7056C74.0266 28.7056 72.4769 28.5266 70.987 28.1691C69.4967 27.8116 68.3348 27.4238 67.56 26.9773C67.0829 26.7087 66.7549 26.4109 66.6361 26.1427C66.52 25.8796 66.4591 25.5956 66.4571 25.3081V23.7883C66.4571 23.1625 66.6955 22.8644 67.1427 22.8644C67.3252 22.8651 67.5063 22.8953 67.6791 22.954C67.8577 23.0138 68.126 23.1326 68.4241 23.2518C69.4767 23.7148 70.5755 24.0644 71.7021 24.2949C72.8694 24.5318 74.0575 24.6516 75.2486 24.6524C77.126 24.6524 78.5864 24.3248 79.5996 23.6691C80.6128 23.0134 81.1493 22.06 81.1493 20.838C81.1493 20.0037 80.881 19.3182 80.3445 18.7518C79.808 18.1858 78.7948 17.6792 77.3348 17.2021L73.0134 15.8612C70.8379 15.1757 69.2288 14.1625 68.2452 12.8213C67.2618 11.51 66.7552 10.0499 66.7552 8.50023C66.7552 7.24867 67.0235 6.14582 67.56 5.19203C68.0961 4.23859 68.8115 3.40434 69.7055 2.74867C70.5996 2.06312 71.6128 1.55652 72.8049 1.19898C73.9967 0.841445 75.2483 0.692383 76.5596 0.692383C77.2153 0.692383 77.9008 0.722266 78.5565 0.811562C79.242 0.900859 79.8678 1.02004 80.4936 1.13922C81.0895 1.28828 81.6559 1.43734 82.1923 1.61629C82.7288 1.79488 83.1458 1.97383 83.4439 2.15242C83.8612 2.39113 84.159 2.62949 84.3379 2.89773C84.5169 3.13609 84.6062 3.46375 84.6062 3.88105V5.28168C84.6062 5.90746 84.3678 6.23547 83.9206 6.23547C83.6823 6.23547 83.2948 6.11594 82.7886 5.87758C81.0895 5.10273 79.1823 4.71531 77.0666 4.71531C75.3678 4.71531 74.0266 4.98355 73.1027 5.54992C72.1791 6.11594 71.7021 6.98043 71.7021 8.20211C71.7021 9.03672 72.0002 9.7518 72.5961 10.3182C73.1923 10.8842 74.2948 11.4505 75.8744 11.9571L80.1062 13.2984C82.2518 13.9839 83.8014 14.9373 84.7254 16.159C85.6493 17.3811 86.0964 18.7817 86.0964 20.3314C86.0964 21.6128 85.8279 22.7751 85.3212 23.7883C84.7851 24.8015 84.0697 25.6955 83.1458 26.4109C82.2219 27.1559 81.1194 27.6924 79.8379 28.0798C78.4967 28.4971 77.0961 28.7056 75.5763 28.7056V28.7056Z"/><path fill="#F90" d="M81.2085 43.1883C71.4041 50.4302 57.1588 54.2745 44.9107 54.2745C27.745 54.2745 12.2783 47.9267 0.596263 37.377C-0.327643 36.5427 0.506615 35.4104 1.60912 36.0657C14.245 43.3972 29.8311 47.8374 45.9538 47.8374C56.8311 47.8374 68.7815 45.5726 79.7783 40.9236C81.4173 40.1783 82.8179 41.9965 81.2085 43.1883V43.1883ZM85.2915 38.5393C84.04 36.9302 77.0066 37.7644 73.8179 38.1518C72.8641 38.2714 72.7151 37.4368 73.5796 36.811C79.1821 32.877 88.3909 34.0097 89.4635 35.3207C90.5365 36.6619 89.1654 45.8704 83.9204 50.2811C83.1161 50.9667 82.3412 50.6091 82.6988 49.7151C83.8906 46.7644 86.5431 40.1188 85.2915 38.5393V38.5393Z"/></g><defs><clipPath id="clip0_37_58"><rect width="90" height="53.789" fill="#fff" transform="translate(0 0.662109)"/></clipPath></defs></svg>