<svg xmlns="http://www.w3.org/2000/svg" width="100%" fill="none" viewBox="0 0 80 91"><g clip-path="url(#clip0_37_61)"><path fill="#FAE501" d="M27.3358 62.9773C22.5692 58.491 19.7655 52.3228 19.7655 45.313C19.7655 38.3033 22.5692 32.1351 27.0555 27.6488C30.981 23.7236 30.981 17.5551 27.0555 13.6296C23.1301 9.70419 16.9618 9.70419 13.0364 13.6296C5.18552 21.7608 0.138672 32.9762 0.138672 45.313C0.138672 57.6499 5.18552 68.8653 13.3167 76.9965C17.2421 80.9219 23.4107 80.9219 27.3358 76.9965C30.981 73.071 30.981 66.9025 27.3358 62.9773V62.9773Z"/><path fill="#4FB5E1" d="M27.3363 27.6483C31.8226 22.8817 37.9908 20.078 45.0005 20.078C52.0103 20.078 58.1785 22.8817 62.6648 27.368C66.59 31.2935 72.7585 31.2935 76.684 27.368C80.6094 23.4426 80.6094 17.2743 76.684 13.3489C68.5528 5.49802 57.3374 0.451172 45.0005 0.451172C32.6637 0.451172 21.4483 5.49802 13.3171 13.6292C9.39169 17.5546 9.39169 23.7232 13.3171 27.6483C17.2426 31.2935 23.4111 31.2935 27.3363 27.6483Z"/><path fill="#F05751" d="M62.6648 62.977C58.1785 67.7433 52.0103 70.5473 45.0005 70.5473C37.9908 70.5473 31.8226 67.7433 27.3363 63.257C23.4111 59.3319 17.2426 59.3319 13.3171 63.257C9.39169 67.1827 9.39169 73.351 13.3171 77.2764C21.4483 85.1273 32.6637 90.1742 45.0005 90.1742C57.3374 90.1742 68.5528 85.1273 76.684 76.9962C80.6094 73.0707 80.6094 66.9022 76.684 62.977C72.7585 59.3319 66.59 59.3319 62.6648 62.977V62.977Z"/><path fill="#0681B6" d="M20.3271 30.452C25.7469 30.452 30.1405 26.0584 30.1405 20.6386C30.1405 15.2188 25.7469 10.8252 20.3271 10.8252C14.9073 10.8252 10.5137 15.2188 10.5137 20.6386C10.5137 26.0584 14.9073 30.452 20.3271 30.452Z"/><path fill="#CD4739" d="M20.3271 79.7997C25.7469 79.7997 30.1405 75.4061 30.1405 69.9863C30.1405 64.5665 25.7469 60.1729 20.3271 60.1729C14.9073 60.1729 10.5137 64.5665 10.5137 69.9863C10.5137 75.4061 14.9073 79.7997 20.3271 79.7997Z"/></g><defs><clipPath id="clip0_37_61"><rect width="79.723" height="90" fill="#fff" transform="translate(0.138672 0.451172)"/></clipPath></defs></svg>