<svg xmlns="http://www.w3.org/2000/svg" width="100%" fill="none" viewBox="0 0 90 91"><g clip-path="url(#clip0_37_31)"><path fill="#744C9E" d="M45 0.472656C20.1473 0.472656 0 20.6196 0 45.4727C0 70.3257 20.1473 90.4727 45 90.4727C69.853 90.4727 90 70.3257 90 45.4727C90 20.6196 69.853 0.472656 45 0.472656ZM9.66937 45.9416L44.5307 80.8033C25.3881 80.5537 9.91863 65.0849 9.66937 45.9416V45.9416ZM52.9088 79.9202L10.5525 37.5639C14.1448 21.8561 28.2034 10.1361 45 10.1361C56.7411 10.1361 67.1432 15.8641 73.569 24.6767L68.6763 28.9935C63.4641 21.5186 54.8037 16.6266 45 16.6266C32.5178 16.6266 21.8883 24.555 17.8703 35.6507L54.8227 72.6024C63.7963 69.3529 70.6978 61.7778 73.009 52.3956H57.6928V45.4727H80.337C80.337 62.2696 68.6173 76.3282 52.9091 79.9198L52.9088 79.9202Z"/></g><defs><clipPath id="clip0_37_31"><rect width="90" height="90" fill="#fff" transform="translate(0 0.472656)"/></clipPath></defs></svg>