<svg xmlns="http://www.w3.org/2000/svg" width="100%" fill="none" viewBox="0 0 256 256"><path fill="#000" d="M119.617 0.0690775C119.067 0.119077 117.315 0.294077 115.738 0.419077C79.378 3.69708 45.319 23.3131 23.748 53.4631C11.736 70.2271 4.054 89.2431 1.151 109.385C0.125 116.415 0 118.492 0 128.025C0 137.558 0.125 139.635 1.151 146.665C8.108 194.73 42.316 235.114 88.711 250.076C97.02 252.754 105.778 254.58 115.738 255.681C119.617 256.106 136.383 256.106 140.262 255.681C157.454 253.779 172.018 249.526 186.382 242.195C188.584 241.069 189.01 240.769 188.709 240.518C188.509 240.368 179.125 227.783 167.864 212.57L147.394 184.922L121.744 146.966C107.63 126.098 96.019 109.034 95.919 109.034C95.819 109.009 95.719 125.874 95.669 146.465C95.593 182.52 95.569 183.971 95.118 184.822C94.468 186.048 93.967 186.549 92.916 187.099C92.115 187.499 91.414 187.574 87.636 187.574H83.306L82.156 186.849C81.4428 186.402 80.8635 185.771 80.479 185.022L79.953 183.896L80.003 133.73L80.078 83.5381L80.854 82.5621C81.254 82.0371 82.105 81.3621 82.706 81.0361C83.732 80.5361 84.132 80.4861 88.461 80.4861C93.566 80.4861 94.417 80.6861 95.743 82.1371C96.119 82.5371 110.007 103.455 126.623 128.651C143.24 153.846 165.963 188.25 177.123 205.139L197.393 235.839L198.419 235.164C207.503 229.259 217.112 220.852 224.719 212.094C240.91 193.504 251.345 170.836 254.849 146.666C255.875 139.635 256 137.558 256 128.026C256 118.492 255.875 116.416 254.849 109.385C247.892 61.3201 213.684 20.9361 167.289 5.97408C159.105 3.32208 150.397 1.49508 140.637 0.394077C138.235 0.144077 121.694 -0.130923 119.617 0.0690775V0.0690775ZM172.018 77.4831C173.219 78.0831 174.195 79.2351 174.545 80.4361C174.745 81.0861 174.795 94.9981 174.745 126.349L174.671 171.336L166.738 159.176L158.78 147.016V114.314C158.78 93.1711 158.88 81.2861 159.03 80.7111C159.43 79.3101 160.307 78.2091 161.508 77.5581C162.534 77.0331 162.909 76.9831 166.838 76.9831C170.542 76.9831 171.192 77.0331 172.018 77.4831Z"/></svg>