<svg xmlns="http://www.w3.org/2000/svg" width="100%" fill="none" viewBox="0 0 227 256"><g clip-path="url(#clip0_106_4)"><path fill="#539E43" d="M113.384 255.525C109.863 255.525 106.577 254.586 103.525 252.943L72.3027 234.398C67.6079 231.816 69.9553 230.877 71.3638 230.407C77.7018 228.294 78.8755 227.825 85.4482 224.068C86.1533 223.599 87.0923 223.834 87.7956 224.303L111.741 238.623C112.68 239.093 113.854 239.093 114.558 238.623L208.224 184.396C209.163 183.927 209.632 182.988 209.632 181.814V73.5934C209.632 72.4197 209.163 71.4807 208.224 71.0113L114.558 17.0183C113.619 16.5488 112.445 16.5488 111.741 17.0183L18.075 71.0121C17.1361 71.4816 16.6666 72.6553 16.6666 73.5943V181.814C16.6666 182.753 17.1361 183.927 18.075 184.396L43.6635 199.185C57.5141 206.227 66.1986 198.011 66.1986 189.795V82.983C66.1986 81.5746 67.3732 80.1661 69.0164 80.1661H80.989C82.3975 80.1661 83.8059 81.3398 83.8059 82.983V189.794C83.8059 208.34 73.7112 219.138 56.1048 219.138C50.7057 219.138 46.4804 219.138 34.5086 213.269L9.8591 199.185C3.75585 195.663 0 189.09 0 182.048V73.829C0 66.7868 3.75585 60.2141 9.8591 56.6921L103.525 2.46526C109.394 -0.821103 117.375 -0.821103 123.243 2.46526L216.909 56.6921C223.012 60.2132 226.768 66.7859 226.768 73.829V182.049C226.768 189.091 223.012 195.664 216.909 199.185L123.243 253.413C120.192 254.822 116.67 255.526 113.384 255.526V255.525ZM142.258 181.109C101.177 181.109 92.726 162.33 92.726 146.366C92.726 144.958 93.8997 143.55 95.5429 143.55H107.749C109.158 143.55 110.332 144.489 110.332 145.897C112.21 158.338 117.609 164.442 142.493 164.442C162.212 164.442 170.663 159.982 170.663 149.419C170.663 143.315 168.316 138.855 137.563 135.802C111.976 133.22 96.0124 127.586 96.0124 107.164C96.0124 88.1482 111.975 76.8807 138.737 76.8807C168.785 76.8807 183.574 87.2092 185.452 109.745C185.452 110.449 185.217 111.154 184.748 111.858C184.278 112.327 183.574 112.797 182.87 112.797H170.663C169.489 112.797 168.316 111.858 168.08 110.684C165.264 97.7734 157.987 93.5481 138.737 93.5481C117.141 93.5481 114.558 101.06 114.558 106.694C114.558 113.502 117.609 115.614 146.718 119.37C175.593 123.125 189.208 128.525 189.208 148.714C188.973 169.372 172.072 181.109 142.258 181.109Z"/></g><defs><clipPath id="clip0_106_4"><rect width="226.77" height="256" fill="#fff"/></clipPath></defs></svg>