<svg xmlns="http://www.w3.org/2000/svg" width="100%" fill="none" viewBox="0 0 90 81"><g clip-path="url(#clip0_37_27)"><path fill="#00D8FF" d="M73.9979 25.9537C73.0401 25.6251 72.0742 25.3206 71.1011 25.0407C71.2645 24.3727 71.415 23.7128 71.5486 23.0646C73.7416 12.4189 72.308 3.84252 67.4111 1.01877C62.7159 -1.68826 55.0375 1.13443 47.2827 7.88338C46.5184 8.54971 45.7711 9.23524 45.0415 9.93931C44.553 9.47113 44.056 9.01202 43.5505 8.56224C35.4231 1.34607 27.2767 -1.6953 22.385 1.13654C17.6941 3.85201 16.3051 11.9144 18.2795 22.0035C18.4759 23.0028 18.6977 23.9968 18.9446 24.9848C17.7915 25.3124 16.6788 25.6612 15.6139 26.0324C6.08519 29.3547 0 34.561 0 39.9613C0 45.5389 6.53273 51.1333 16.4573 54.5255C17.262 54.7994 18.0733 55.0532 18.8905 55.2867C18.6251 56.3507 18.3894 57.422 18.1839 58.4992C16.3016 68.4133 17.7715 76.2851 22.4497 78.9834C27.2816 81.7699 35.3914 78.906 43.2879 72.0031C43.9282 71.4419 44.5544 70.8648 45.1659 70.2724C45.9561 71.0348 46.7673 71.775 47.5987 72.4921C55.248 79.0741 62.8024 81.7319 67.4761 79.0263C72.3034 76.2317 73.8724 67.7752 71.8355 57.4867C71.675 56.6807 71.4951 55.8787 71.2958 55.0814C71.8654 54.9126 72.4243 54.7389 72.9693 54.5582C83.2869 51.14 90 45.6134 90 39.9613C90 34.5413 83.7183 29.2999 73.9979 25.9537V25.9537ZM71.7602 50.909C71.268 51.0718 70.7632 51.2289 70.2485 51.3819C69.1095 47.7759 67.5724 43.9417 65.6912 39.98C67.4863 36.1128 68.9643 32.3275 70.0713 28.7451C70.9921 29.0116 71.8854 29.2925 72.7467 29.5888C81.0752 32.4562 86.1553 36.695 86.1553 39.9613C86.1553 43.4404 80.6688 47.9569 71.7602 50.909V50.909ZM68.0639 58.2335C68.9646 62.7827 69.0929 66.896 68.4963 70.1117C67.9605 73.0012 66.8827 74.9274 65.5495 75.6991C62.7135 77.3409 56.648 75.2069 50.1064 69.5777C49.3331 68.9109 48.5785 68.2227 47.8434 67.514C50.3796 64.7405 52.914 61.5164 55.3876 57.9353C59.7386 57.5493 63.849 56.9179 67.5766 56.0562C67.7562 56.778 67.9187 57.504 68.0639 58.2335V58.2335ZM30.683 75.4154C27.912 76.3938 25.7048 76.4219 24.3707 75.6527C21.5318 74.0155 20.3516 67.6947 21.9614 59.2164C22.1528 58.2146 22.3719 57.2182 22.6185 56.2285C26.305 57.0441 30.3855 57.6305 34.7467 57.9842C37.2371 61.4882 39.8447 64.7089 42.4726 67.5291C41.9141 68.0695 41.3424 68.5961 40.758 69.1083C37.266 72.1606 33.7669 74.3262 30.683 75.4154V75.4154ZM17.7012 50.8876C13.3126 49.3874 9.68836 47.438 7.20422 45.3107C4.9718 43.3993 3.84504 41.5012 3.84504 39.9613C3.84504 36.6841 8.7307 32.504 16.8796 29.663C17.8685 29.3185 18.9035 28.9933 19.9775 28.6881C21.1039 32.3514 22.5812 36.1817 24.364 40.0549C22.558 43.9853 21.0596 47.8768 19.9223 51.5833C19.1764 51.3696 18.4358 51.1376 17.7012 50.8876V50.8876ZM22.0528 21.2649C20.3614 12.621 21.4847 6.1006 24.3116 4.46408C27.3224 2.72103 33.9803 5.20623 40.9978 11.4373C41.4554 11.8446 41.9056 12.2601 42.3482 12.6836C39.7332 15.4915 37.1496 18.6883 34.6813 22.1716C30.4485 22.5639 26.3967 23.1939 22.6716 24.038C22.4421 23.1191 22.2357 22.1946 22.0528 21.2653V21.2649ZM60.8748 30.8513C59.9949 29.3315 59.0824 27.8308 58.1379 26.3503C61.0095 26.7134 63.7608 27.1954 66.3444 27.7846C65.5689 30.2709 64.6021 32.87 63.4641 35.5348C62.6322 33.9566 61.769 32.3951 60.8748 30.8513V30.8513ZM45.0432 15.4314C46.8165 17.3527 48.5926 19.4976 50.3395 21.8249C46.7958 21.6576 43.2461 21.6569 39.7023 21.8228C41.451 19.5169 43.2422 17.3749 45.0432 15.4314ZM29.1101 30.8777C28.2271 32.409 27.3799 33.9608 26.5693 35.5317C25.45 32.8763 24.492 30.2653 23.7097 27.7438C26.2775 27.1694 29.0159 26.6997 31.8691 26.3432C30.9141 27.8328 29.9942 29.3446 29.1101 30.8773V30.8777ZM31.9511 53.853C29.0032 53.5239 26.2238 53.0785 23.6566 52.5195C24.4512 49.9531 25.4303 47.2865 26.5739 44.5742C27.3877 46.1462 28.2384 47.6989 29.1252 49.231C30.0371 50.806 30.9814 52.3487 31.9511 53.853ZM45.1494 64.762C43.3269 62.796 41.5093 60.6209 39.7343 58.2816C41.4577 58.3491 43.2144 58.3836 45 58.3836C46.8345 58.3836 48.6478 58.3424 50.4327 58.263C48.6802 60.6445 46.9107 62.8228 45.1494 64.762ZM63.5003 44.4357C64.7033 47.1779 65.7172 49.8304 66.5223 52.3529C63.913 52.9484 61.0956 53.428 58.127 53.7841C59.0782 52.2761 59.9994 50.7493 60.8899 49.2046C61.7953 47.6346 62.6656 46.0445 63.5003 44.4357V44.4357ZM57.5596 47.2837C56.1963 49.652 54.7563 51.9752 53.242 54.2499C50.499 54.4442 47.7499 54.5407 45 54.5392C42.1991 54.5392 39.4748 54.4521 36.8515 54.2819C35.2977 52.0125 33.8302 49.6851 32.4524 47.3048H32.4527C31.0814 44.937 29.8004 42.5181 28.6126 40.0531C29.7974 37.5876 31.0744 35.1674 32.4411 32.7979L32.4408 32.7983C33.807 30.4281 35.2626 28.1107 36.8047 25.851C39.4812 25.6485 42.2258 25.5431 44.9996 25.5431H45C47.7865 25.5431 50.5346 25.6496 53.2104 25.8535C54.7369 28.1098 56.1833 30.4192 57.5469 32.7775C58.9182 35.1418 60.2121 37.5501 61.4268 39.9986C60.2246 42.4721 58.9347 44.902 57.5596 47.2837V47.2837ZM65.4908 4.34947C68.5044 6.0876 69.6765 13.0967 67.783 22.2883C67.6621 22.8747 67.5264 23.472 67.3787 24.0778C63.6444 23.2157 59.5898 22.5748 55.3447 22.1765C52.8718 18.6549 50.3093 15.4532 47.7369 12.6815C48.4111 12.0316 49.1013 11.3986 49.8069 10.7831C56.4514 5.00092 62.6614 2.71787 65.4908 4.34947V4.34947ZM45 31.9246C49.4385 31.9246 53.0367 35.5229 53.0367 39.9613C53.0367 44.3998 49.4385 47.9981 45 47.9981C40.5615 47.9981 36.9633 44.3998 36.9633 39.9613C36.9633 35.5229 40.5615 31.9246 45 31.9246V31.9246Z"/></g><defs><clipPath id="clip0_37_27"><rect width="90" height="80.156" fill="#fff"/></clipPath></defs></svg>