<svg xmlns="http://www.w3.org/2000/svg" width="100%" fill="none" viewBox="0 0 90 91"><g clip-path="url(#clip0_37_51)"><path fill="#3178C6" d="M7.03125 0.167969H82.9688C86.8521 0.167969 90 3.31586 90 7.19922V83.1367C90 87.0201 86.8521 90.168 82.9688 90.168H7.03125C3.14789 90.168 0 87.0201 0 83.1367V7.19922C0 3.31586 3.14789 0.167969 7.03125 0.167969Z"/><path fill="#fff" d="M52.9165 70.6475V80.3576C54.4957 81.1669 56.3636 81.7737 58.5197 82.1784C60.6758 82.583 62.9483 82.7852 65.3375 82.7852C67.6656 82.7852 69.8776 82.5626 71.9729 82.1175C74.0682 81.6725 75.9059 80.9391 77.4847 79.9178C79.0639 78.8962 80.3141 77.5609 81.2355 75.9121C82.1566 74.2636 82.6172 72.2256 82.6172 69.7981C82.6172 68.0382 82.3539 66.4955 81.8276 65.1705C81.307 63.8544 80.5331 62.6534 79.5498 61.6355C78.558 60.6037 77.3684 59.6784 75.9818 58.8589C74.5949 58.0397 73.0308 57.2659 71.2895 56.5379C70.014 56.0116 68.8704 55.5011 67.8579 55.0054C66.8457 54.5097 65.9851 54.0041 65.2767 53.488C64.568 52.9723 64.0213 52.426 63.6367 51.8494C63.2521 51.2729 63.0598 50.6207 63.0598 49.8923C63.0598 49.2246 63.2317 48.6231 63.5759 48.087C63.92 47.5509 64.4063 47.0907 65.0338 46.7064C65.6613 46.3218 66.4305 46.0237 67.3418 45.811C68.2527 45.5986 69.2652 45.4925 70.3786 45.4925C71.1886 45.4925 72.0439 45.5533 72.9446 45.6746C73.8457 45.7959 74.7517 45.9829 75.6629 46.236C76.5713 46.4878 77.4595 46.8074 78.32 47.1919C79.1545 47.5617 79.9526 48.0086 80.704 48.5268V39.454C79.226 38.8877 77.6113 38.4679 75.8602 38.1947C74.109 37.9216 72.0995 37.7852 69.8319 37.7852C67.5239 37.7852 65.3375 38.033 63.2725 38.5287C61.2074 39.0241 59.3902 39.7979 57.8211 40.8497C56.2521 41.902 55.0121 43.2421 54.1009 44.8705C53.19 46.499 52.7344 48.4459 52.7344 50.7118C52.7344 53.6044 53.5693 56.0724 55.24 58.1157C56.9102 60.1586 59.4457 61.8883 62.8471 63.3044C64.1027 63.8157 65.3481 64.352 66.5824 64.9128C67.7366 65.4387 68.7336 65.9847 69.5739 66.5511C70.4141 67.1174 71.0772 67.7344 71.563 68.402C72.0489 69.0696 72.2918 69.8283 72.2918 70.678C72.2958 71.2896 72.1387 71.8914 71.8362 72.4228C71.5328 72.9586 71.0719 73.4241 70.4545 73.8186C69.8372 74.213 69.0676 74.5213 68.1465 74.7439C67.2254 74.9664 66.1472 75.0779 64.9122 75.0779C62.8066 75.0779 60.7215 74.7087 58.6564 73.9701C56.591 73.2318 54.6778 72.1244 52.9165 70.6475V70.6475ZM36.732 46.4835H49.2188V38.4883H14.4141V46.4835H26.84V82.082H36.732V46.4835Z"/></g><defs><clipPath id="clip0_37_51"><rect width="90" height="90" fill="#fff" transform="translate(0 0.167969)"/></clipPath></defs></svg>