<svg width="100%" viewBox="0 0 90 23" fill="none" xmlns="http://www.w3.org/2000/svg">
<g clip-path="url(#clip0_37_33)">
<path d="M29.061 9.25603C29.061 7.65399 27.491 5.95254 24.7743 5.95254C21.7234 5.95254 18.372 8.17324 17.8597 12.6035C17.3364 17.078 20.1422 19.0667 22.9704 19.0667C25.7987 19.0667 27.2795 17.9729 28.7938 16.5146C27.491 14.8904 25.8098 15.6418 25.4869 15.8075C25.1306 15.9842 24.6741 16.2274 23.7387 16.2274C22.6475 16.2274 21.5341 15.7413 21.5341 13.7194C28.5267 13.0345 29.061 10.8579 29.061 9.25603V9.25603ZM25.5981 9.52114C25.5537 10.0182 25.3533 10.8691 21.8125 11.344C22.5585 8.71463 23.9836 8.5158 24.6407 8.5158C25.2531 8.5158 25.6426 8.99074 25.5981 9.52114V9.52114ZM13.751 9.95196C13.751 9.95196 12.2481 14.6363 12.1254 15.023C12.0809 14.6253 10.9786 6.21766 10.9786 6.21766C8.41764 6.21766 7.04813 8.02952 6.32443 9.94097C6.32443 9.94097 4.49824 14.6363 4.3425 15.034C4.33125 14.6695 4.06406 9.99626 4.06406 9.99626C3.90814 7.65382 1.74814 6.22882 0 6.22882L2.11553 18.9673C4.799 18.9563 6.24639 17.1554 7.00365 15.244C7.00365 15.244 8.61803 11.101 8.68482 10.9132C8.69607 11.0899 9.84287 18.9673 9.84287 18.9673C12.5374 18.9673 13.985 17.2768 14.7644 15.4318L18.5389 6.22882C15.8776 6.22882 14.4749 8.02952 13.751 9.95196ZM38.9484 5.93039C37.2894 5.93039 36.02 6.82533 34.9511 8.1401V8.12911L35.9088 0.472656C33.7041 0.472656 31.9115 2.37295 31.5663 5.20114L29.896 18.8679C31.1655 18.8679 32.5127 18.5034 33.2364 17.5753C33.8822 18.4038 34.8509 19.0667 36.2872 19.0667C40.0062 19.0667 42.5559 14.78 42.5559 10.7585C42.5338 7.09045 40.741 5.93056 38.9484 5.93056V5.93039ZM38.6033 12.5042C38.2136 14.7469 36.9554 16.2717 35.7416 16.2717C34.5169 16.2717 33.9936 15.7301 33.9936 15.7301C34.2274 13.7635 34.3721 12.5593 34.8175 11.5209C35.2629 10.4824 36.3206 8.82504 37.4229 8.82504C38.5029 8.82504 38.993 10.2502 38.6033 12.5041V12.5042ZM51.8421 6.22847H49.2478L49.259 6.09591C49.4371 4.41661 49.8379 3.53283 51.1629 3.38928C52.0648 3.30085 52.4656 2.83673 52.5658 2.32864C52.6438 1.93097 52.8887 0.549749 52.8887 0.549749C47.6779 0.51661 46.0412 2.74847 45.618 6.1512L45.6068 6.22864H45.5511C44.7049 6.22864 43.7697 7.1787 43.6138 8.38289L43.5581 8.82487H45.2951L43.8365 20.779L43.3911 22.9224C43.4468 22.9224 43.5136 22.9334 43.5691 22.9334C46.0078 22.845 47.5664 20.9337 47.9116 18.1606L49.0474 8.82487H49.8602C50.6617 8.82487 51.5972 8.02952 51.7642 6.70359L51.8421 6.22864V6.22847ZM65.3372 6.00766C62.3419 6.00766 59.5137 8.19521 58.6452 11.6311C57.7768 15.0671 59.0906 19.1328 63.4999 19.1328C67.898 19.1328 70.4368 14.9014 70.4368 11.377C70.4368 7.87463 68.0428 6.00766 65.3372 6.00766ZM66.5508 12.3935C66.3949 13.9512 65.7046 16.3156 63.8118 16.3156C61.9077 16.3156 62.1749 13.5535 62.3642 12.2388C62.5646 10.8357 63.3553 8.83585 65.0589 8.83585C66.5842 8.83585 66.7288 10.6367 66.5508 12.3935ZM85.2346 9.95178C85.2346 9.95178 83.7313 14.6361 83.6088 15.0228C83.5643 14.6252 82.462 6.21748 82.462 6.21748C79.901 6.21748 78.5315 8.02934 77.8078 9.9408C77.8078 9.9408 75.9816 14.6361 75.8259 15.0338C75.8146 14.6693 75.5474 9.99609 75.5474 9.99609C75.3915 7.65365 73.2315 6.22864 71.4834 6.22864L73.5878 18.9671C76.2711 18.9561 77.7187 17.1553 78.4758 15.2438C78.4758 15.2438 80.0903 11.1009 80.1461 10.913C80.1571 11.0897 81.3039 18.9671 81.3039 18.9671C83.9987 18.9671 85.446 17.2767 86.2255 15.4317L90 6.22882C87.3499 6.22882 85.947 8.02952 85.2346 9.95196V9.95178ZM54.2918 0.549924L52.1093 18.0171L51.664 20.1715C51.7196 20.1715 51.7864 20.1827 51.8421 20.1827C54.1914 20.1495 55.8617 18.1055 56.1734 15.5313L57.4316 5.51056C57.8102 2.45021 55.973 0.550098 54.2918 0.550098V0.549924Z" fill="#4353FF"/>
</g>
<defs>
<clipPath id="clip0_37_33">
<rect width="90" height="22.5" fill="white" transform="translate(0 0.472656)"/>
</clipPath>
</defs>
</svg>
