<svg width="100%" viewBox="0 0 42 91" fill="none" xmlns="http://www.w3.org/2000/svg">
<g clip-path="url(#clip0_37_69)">
<path d="M28.8061 10.4688C25.034 5.99327 21.7856 1.44753 21.122 0.503598C21.1063 0.487032 21.0873 0.473843 21.0663 0.464831C21.0453 0.455819 21.0226 0.451172 20.9997 0.451172C20.9769 0.451172 20.9542 0.455819 20.9332 0.464831C20.9122 0.473843 20.8932 0.487032 20.8775 0.503598C20.2138 1.4477 16.9655 5.99327 13.1932 10.4688C-19.185 51.7633 18.2929 79.6311 18.2929 79.6311L18.6071 79.841C18.8865 84.1416 19.5852 90.3308 19.5852 90.3308H22.3794C22.3794 90.3308 23.0778 84.1767 23.3573 79.8411L23.6717 79.5962C23.7066 79.6313 61.1845 51.7634 28.8061 10.4688V10.4688ZM20.9822 79.0016C20.9822 79.0016 19.3056 77.5682 18.8516 76.8341V76.7639L20.8775 31.798C20.8775 31.6582 21.0871 31.6582 21.0871 31.798L23.1129 76.7639V76.8341C22.6588 77.5682 20.9822 79.0018 20.9822 79.0018V79.0016Z" fill="#01EC64"/>
</g>
<defs>
<clipPath id="clip0_37_69">
<rect width="41.9672" height="90" fill="white" transform="translate(0.015625 0.451172)"/>
</clipPath>
</defs>
</svg>
