<svg width="100%" viewBox="0 0 90 55" fill="none" xmlns="http://www.w3.org/2000/svg">
<g clip-path="url(#clip0_37_29)">
<path d="M21.2361 14.3174H38.211V15.6667H22.7921V25.821H37.2916V27.1701H22.7921V38.3187H38.3878V39.6678H21.2361V14.3174ZM39.7318 14.3174H41.5354L49.5276 25.4659L57.6967 14.3172L68.808 0.15625L50.5531 26.6377L59.96 39.6678H58.0857L49.5276 27.8093L40.934 39.6678H39.0952L48.5728 26.6375L39.7317 14.3174H39.7318ZM60.6319 15.6667V14.3172H79.9763V15.6665H71.0643V39.6677H69.5083V15.6667H60.6319V15.6667ZM0 14.3172H1.94502L28.7657 54.4521L17.6822 39.6677L1.62668 16.2346L1.55602 39.668H0V14.3172ZM79.8195 37.9112C79.5015 37.9112 79.2631 37.6652 79.2631 37.3466C79.2631 37.0285 79.5015 36.782 79.8195 36.782C80.1411 36.782 80.3758 37.0283 80.3758 37.3466C80.3758 37.665 80.1411 37.9112 79.8195 37.9112ZM81.3484 36.4259H82.1811C82.1923 36.8768 82.5216 37.18 83.006 37.18C83.5472 37.18 83.8538 36.8541 83.8538 36.244V32.3785H84.7016V36.2477C84.7016 37.3466 84.0658 37.9796 83.0136 37.9796C82.0257 37.9796 81.3484 37.3656 81.3484 36.4257V36.4259ZM85.8104 36.3767H86.6507C86.7226 36.8958 87.2297 37.2254 87.9602 37.2254C88.6414 37.2254 89.141 36.8729 89.141 36.3879C89.141 35.9712 88.823 35.721 88.1002 35.5505L87.3962 35.38C86.4083 35.1487 85.9581 34.6712 85.9581 33.8679C85.9581 32.8941 86.7528 32.246 87.9449 32.246C89.0538 32.246 89.8638 32.8939 89.913 33.8148H89.0879C89.0084 33.3109 88.5693 32.9962 87.9335 32.9962C87.2638 32.9962 86.8173 33.3184 86.8173 33.811C86.8173 34.2012 87.1047 34.425 87.8163 34.5916L88.418 34.7395C89.5382 35.001 90 35.4558 90 36.2781C90 37.324 89.1902 37.9796 87.8959 37.9796C86.6848 37.9796 85.8709 37.3542 85.8104 36.3765V36.3767Z" fill="black"/>
</g>
<defs>
<clipPath id="clip0_37_29">
<rect width="90" height="54.3164" fill="white" transform="translate(0 0.15625)"/>
</clipPath>
</defs>
</svg>
