<svg width="100%" viewBox="0 0 90 57" fill="none" xmlns="http://www.w3.org/2000/svg">
<g clip-path="url(#clip0_37_35)">
<path d="M44.4922 56.0089C44.1875 56.0089 43.9031 55.9277 43.6389 55.7855L40.937 54.1806C40.5306 53.957 40.7338 53.8758 40.8558 53.8352C41.4042 53.6524 41.5058 53.6116 42.0746 53.2868C42.1356 53.246 42.217 53.2664 42.2778 53.307L44.3501 54.5462C44.4313 54.5869 44.5329 54.5869 44.5938 54.5462L52.6999 49.8532C52.7811 49.8126 52.8219 49.7312 52.8219 49.6298V40.2642C52.8219 40.1624 52.7811 40.0814 52.6999 40.0406L44.5938 35.368C44.5125 35.3272 44.4109 35.3272 44.3501 35.368L36.244 40.0406C36.1628 40.0812 36.122 40.1828 36.122 40.264V49.6296C36.122 49.711 36.1628 49.8125 36.244 49.8532L38.4585 51.1331C39.6571 51.7425 40.4088 51.0315 40.4088 50.3205V41.0767C40.4088 40.9548 40.5104 40.8328 40.6526 40.8328H41.6886C41.8106 40.8328 41.9324 40.9344 41.9324 41.0767V50.3205C41.9324 51.9253 41.0588 52.86 39.5351 52.86C39.0679 52.86 38.7023 52.86 37.666 52.352L35.5329 51.1331C35.0047 50.8285 34.6797 50.2595 34.6797 49.65V40.2844C34.6797 39.675 35.0047 39.106 35.5329 38.8013L43.6389 34.1083C44.1469 33.8239 44.8377 33.8239 45.3456 34.1083L53.4515 38.8013C53.9798 39.106 54.305 39.675 54.305 40.2844V49.65C54.305 50.2595 53.9798 50.8285 53.4515 51.1331L45.3456 55.8261C45.0814 55.9481 44.7767 56.0089 44.4923 56.0089H44.4922ZM46.9911 49.5688C43.4359 49.5688 42.7045 47.9435 42.7045 46.5621C42.7045 46.4401 42.8061 46.3183 42.9483 46.3183H44.0047C44.1265 46.3183 44.2281 46.3995 44.2281 46.5215C44.3907 47.5981 44.8579 48.1264 47.0114 48.1264C48.7179 48.1264 49.4495 47.7403 49.4495 46.8261C49.4495 46.2979 49.2462 45.912 46.5848 45.6478C44.3703 45.4243 42.9889 44.9368 42.9889 43.1693C42.9889 41.5237 44.3705 40.5484 46.6864 40.5484C49.2868 40.5484 50.5668 41.4425 50.7294 43.3926C50.7294 43.4537 50.709 43.5146 50.6684 43.5756C50.6276 43.6162 50.5668 43.6568 50.5058 43.6568H49.4494C49.3478 43.6568 49.2462 43.5756 49.2259 43.474C48.9821 42.3567 48.3523 41.9909 46.6864 41.9909C44.8173 41.9909 44.5938 42.6411 44.5938 43.1285C44.5938 43.7178 44.858 43.9006 47.3771 44.2256C49.876 44.5508 51.0544 45.018 51.0544 46.7651C51.034 48.553 49.5713 49.5688 46.9911 49.5688Z" fill="#539E43"/>
<path d="M19.3413 19.3791C19.3413 19.0135 19.1381 18.6679 18.813 18.4851L10.1991 13.5281C10.0567 13.4467 9.89426 13.4061 9.73184 13.3857H9.65045C9.48803 13.3857 9.32543 13.4467 9.18322 13.5281L0.569238 18.4851C0.244043 18.6679 0.0410156 19.0133 0.0410156 19.3791L0.0614062 32.7063C0.0614062 32.8891 0.163008 33.0719 0.32543 33.1533C0.488027 33.2549 0.691055 33.2549 0.833437 33.1533L5.95307 30.2278C6.27809 30.045 6.48129 29.6996 6.48129 29.3339V23.0969C6.48129 22.7313 6.68432 22.3858 7.00951 22.203L9.18322 20.9434C9.34582 20.8418 9.52863 20.801 9.71145 20.801C9.89426 20.801 10.0771 20.8418 10.2195 20.9434L12.3932 22.203C12.7184 22.3858 12.9214 22.7311 12.9214 23.0969V29.3339C12.9214 29.6996 13.1246 30.045 13.4496 30.2278L18.5692 33.1533C18.6483 33.2031 18.7399 33.2295 18.8333 33.2295C18.9268 33.2295 19.0184 33.2031 19.0975 33.1533C19.2601 33.0719 19.3617 32.8891 19.3617 32.7063L19.3413 19.3791ZM60.7453 1.0337C60.5829 0.95231 60.3797 0.95231 60.2373 1.0337C60.0749 1.1353 59.9733 1.29772 59.9733 1.48053V14.6861C59.9733 14.8079 59.9125 14.9297 59.7905 15.0111C59.6687 15.0719 59.5467 15.0719 59.4248 15.0111L57.2714 13.7719C57.1135 13.682 56.9349 13.6347 56.7532 13.6347C56.5716 13.6347 56.393 13.682 56.2351 13.7719L47.6211 18.7493C47.2961 18.9321 47.0929 19.2775 47.0929 19.6431V29.5776C47.0929 29.9432 47.2961 30.2888 47.6211 30.4716L56.2351 35.449C56.393 35.5389 56.5716 35.5862 56.7532 35.5862C56.9349 35.5862 57.1135 35.5389 57.2714 35.449L65.8853 30.4716C66.2104 30.2888 66.4136 29.9434 66.4136 29.5776V4.81247C66.4136 4.42645 66.2104 4.08122 65.8853 3.89823L60.7455 1.0337H60.7453ZM59.9531 26.3068C59.9531 26.4084 59.9125 26.4896 59.8311 26.5302L56.8853 28.2367C56.8442 28.2568 56.799 28.2672 56.7532 28.2672C56.7075 28.2672 56.6623 28.2568 56.6211 28.2367L53.6754 26.5302C53.594 26.4896 53.5534 26.388 53.5534 26.3068V22.8937C53.5534 22.7921 53.594 22.7109 53.6754 22.6703L56.6211 20.9636C56.6623 20.9435 56.7075 20.9331 56.7532 20.9331C56.799 20.9331 56.8442 20.9435 56.8853 20.9636L59.8311 22.6703C59.9125 22.7107 59.9531 22.8125 59.9531 22.8937V26.3068ZM89.4112 22.8125C89.7364 22.6297 89.9192 22.2842 89.9192 21.9184V19.5009C89.9192 19.1353 89.716 18.7899 89.4112 18.6071L80.8582 13.65C80.7003 13.5601 80.5218 13.5129 80.3401 13.5129C80.1584 13.5129 79.9799 13.5601 79.822 13.65L71.208 18.6273C70.8828 18.8101 70.6798 19.1555 70.6798 19.5211V29.4558C70.6798 29.8214 70.883 30.1668 71.208 30.3496L79.761 35.2254C80.0862 35.4082 80.4722 35.4082 80.777 35.2254L85.9574 32.3409C86.12 32.2595 86.2216 32.0767 86.2216 31.8938C86.2216 31.711 86.12 31.5282 85.9574 31.4468L77.3029 26.4694C77.1403 26.3678 77.0387 26.2054 77.0387 26.0226V22.9142C77.0387 22.7314 77.1403 22.5486 77.3029 22.4672L80.0048 20.9232C80.0839 20.8734 80.1754 20.847 80.2689 20.847C80.3624 20.847 80.4539 20.8734 80.533 20.9232L83.2351 22.4672C83.3977 22.5688 83.4991 22.7313 83.4991 22.9142V25.3522C83.4991 25.535 83.6007 25.7178 83.7633 25.799C83.8424 25.8488 83.934 25.8752 84.0275 25.8752C84.1209 25.8752 84.2125 25.8488 84.2916 25.799L89.4112 22.8125V22.8125Z" fill="#333333"/>
<path d="M80.208 22.3449C80.2382 22.3251 80.2735 22.3145 80.3096 22.3145C80.3457 22.3145 80.3811 22.3251 80.4112 22.3449L82.0569 23.2998C82.1177 23.3406 82.1583 23.4014 82.1583 23.4826V25.3925C82.1583 25.4737 82.1179 25.5347 82.0569 25.5753L80.4112 26.5301C80.3811 26.55 80.3457 26.5606 80.3096 26.5606C80.2735 26.5606 80.2382 26.55 80.208 26.5301L78.5625 25.5753C78.5015 25.5347 78.4609 25.4737 78.4609 25.3925V23.4828C78.4609 23.4014 78.5014 23.3404 78.5625 23.3L80.208 22.3449V22.3449Z" fill="#539E43"/>
<path d="M42.3177 18.6276L33.7241 13.691C33.6397 13.6483 33.5512 13.6143 33.4599 13.5894L23.8301 30.0861C23.9098 30.1835 24.0062 30.266 24.1147 30.3299L32.7083 35.2667C32.9521 35.4089 33.2365 35.4495 33.5005 35.3681L42.5413 18.831C42.4803 18.7498 42.3989 18.6886 42.3177 18.6278V18.6276Z" fill="url(#paint0_linear_37_35)"/>
<path fill-rule="evenodd" clip-rule="evenodd" d="M32.4246 11.8823L32.3027 11.9433H32.4652L32.4246 11.8823V11.8823Z" fill="url(#paint1_linear_37_35)"/>
<path fill-rule="evenodd" clip-rule="evenodd" d="M42.3392 30.3091C42.583 30.1669 42.7659 29.9231 42.8472 29.6591L33.4203 13.5688C33.1765 13.5282 32.9123 13.5484 32.689 13.6906L24.1562 18.6072L33.3593 35.3882C33.4931 35.3662 33.6231 35.3252 33.7453 35.2663L42.3391 30.3093L42.3392 30.3091Z" fill="url(#paint2_linear_37_35)"/>
<path fill-rule="evenodd" clip-rule="evenodd" d="M43.1313 30.1465L43.0703 30.0449V30.1871L43.1311 30.1465H43.1313Z" fill="url(#paint3_linear_37_35)"/>
<path fill-rule="evenodd" clip-rule="evenodd" d="M42.3383 30.3091L33.7649 35.2459C33.6439 35.3076 33.5134 35.3488 33.3789 35.3677L33.5415 35.6725L43.0493 30.1671V30.0451L42.8055 29.6387C42.7649 29.9231 42.5821 30.1669 42.3383 30.3091V30.3091Z" fill="url(#paint4_linear_37_35)"/>
<path fill-rule="evenodd" clip-rule="evenodd" d="M42.3383 30.3091L33.7649 35.2459C33.6439 35.3076 33.5134 35.3488 33.3789 35.3677L33.5415 35.6725L43.0493 30.1671V30.0451L42.8055 29.6387C42.7649 29.9231 42.5821 30.1669 42.3383 30.3091V30.3091Z" fill="url(#paint5_linear_37_35)"/>
</g>
<defs>
<linearGradient id="paint0_linear_37_35" x1="31.9277" y1="25.6274" x2="55.4067" y2="12.8712" gradientUnits="userSpaceOnUse">
<stop offset="0.1376" stop-color="#41873F"/>
<stop offset="0.4032" stop-color="#54A044"/>
<stop offset="0.7136" stop-color="#66B848"/>
<stop offset="0.9081" stop-color="#6CC04A"/>
</linearGradient>
<linearGradient id="paint1_linear_37_35" x1="25.1338" y1="11.8905" x2="40.9565" y2="11.8905" gradientUnits="userSpaceOnUse">
<stop offset="0.09192" stop-color="#6CC04A"/>
<stop offset="0.2864" stop-color="#66B848"/>
<stop offset="0.5968" stop-color="#54A044"/>
<stop offset="0.8624" stop-color="#41873F"/>
</linearGradient>
<linearGradient id="paint2_linear_37_35" x1="23.3359" y1="24.4686" x2="43.1274" y2="24.4686" gradientUnits="userSpaceOnUse">
<stop offset="0.09192" stop-color="#6CC04A"/>
<stop offset="0.2864" stop-color="#66B848"/>
<stop offset="0.5968" stop-color="#54A044"/>
<stop offset="0.8624" stop-color="#41873F"/>
</linearGradient>
<linearGradient id="paint3_linear_37_35" x1="37.1453" y1="30.0964" x2="43.0873" y2="30.0964" gradientUnits="userSpaceOnUse">
<stop offset="0.09192" stop-color="#6CC04A"/>
<stop offset="0.2864" stop-color="#66B848"/>
<stop offset="0.5968" stop-color="#54A044"/>
<stop offset="0.8624" stop-color="#41873F"/>
</linearGradient>
<linearGradient id="paint4_linear_37_35" x1="23.3351" y1="32.6722" x2="43.1264" y2="32.6722" gradientUnits="userSpaceOnUse">
<stop offset="0.09192" stop-color="#6CC04A"/>
<stop offset="0.2864" stop-color="#66B848"/>
<stop offset="0.5968" stop-color="#54A044"/>
<stop offset="0.8624" stop-color="#41873F"/>
</linearGradient>
<linearGradient id="paint5_linear_37_35" x1="46.0097" y1="16.9031" x2="40.9958" y2="43.1758" gradientUnits="userSpaceOnUse">
<stop stop-color="#41873F"/>
<stop offset="0.3288" stop-color="#418B3D"/>
<stop offset="0.6352" stop-color="#419637"/>
<stop offset="0.9319" stop-color="#3FA92D"/>
<stop offset="1" stop-color="#3FAE2A"/>
</linearGradient>
<clipPath id="clip0_37_35">
<rect width="90" height="55.1953" fill="white" transform="translate(0 0.972656)"/>
</clipPath>
</defs>
</svg>
