<svg width="100%" viewBox="0 0 90 68" fill="none" xmlns="http://www.w3.org/2000/svg">
<path d="M77.497 38.968C74.3574 38.9843 71.6284 39.7404 69.3436 40.8583C68.5049 39.1979 67.6666 37.7186 67.5189 36.6335C67.3542 35.3679 67.1572 34.5952 67.3542 33.0828C67.5516 31.5704 68.4393 29.4168 68.4228 29.2525C68.4065 29.0882 68.2253 28.3155 66.4172 28.2992C64.609 28.2827 63.0473 28.6444 62.8664 29.121C62.6856 29.5976 62.3405 30.6827 62.1103 31.8003C61.7979 33.4445 58.4939 39.3128 56.6036 42.3869C55.9952 41.1872 55.4692 40.1349 55.3539 39.2966C55.1896 38.031 54.9922 37.2582 55.1896 35.7459C55.387 34.2335 56.2747 32.0802 56.2582 31.9156C56.2416 31.7513 56.0607 30.9785 54.2526 30.9623C52.4441 30.9457 50.8823 31.3074 50.7018 31.7841C50.521 32.261 50.3236 33.3786 49.9456 34.4637C49.5674 35.5488 45.1783 45.3465 44.0276 47.8777C43.5626 48.9022 43.0748 49.9162 42.5646 50.919C42.5646 50.919 42.548 50.9684 42.4987 51.0505C42.3384 51.3649 42.1741 51.6773 42.0058 51.9875V52.0038C41.7591 52.4479 41.4961 52.8587 41.3646 52.8587C41.2659 52.8587 41.085 51.6752 41.3974 50.0641C42.0548 46.6614 43.6166 41.3681 43.6004 41.1873C43.6004 41.0885 43.8961 40.1681 42.5812 39.6911C41.2986 39.2145 40.8386 40.0034 40.7233 40.0034C40.6084 40.0034 40.5259 40.283 40.5259 40.283C40.5259 40.283 41.9565 34.3322 37.7973 34.3322C35.2001 34.3322 31.6162 37.1761 29.8409 39.7404C27.8227 40.8387 25.8062 41.9402 23.7914 43.0448C22.8219 43.5873 21.8189 44.1299 20.8819 44.6393C20.816 44.5737 20.7504 44.4912 20.6845 44.4256C15.6541 39.0502 6.35 35.2527 6.74449 28.0363C6.89255 25.406 7.79646 18.5016 24.6135 10.1179C38.4547 3.29563 49.469 5.18593 51.3759 9.37793C54.1045 15.3619 45.4744 26.4745 31.1724 28.0853C25.7148 28.6937 22.8543 26.5894 22.1313 25.8005C21.3751 24.9784 21.2598 24.929 20.9802 25.0936C20.5202 25.3404 20.816 26.08 20.9802 26.5073C21.4079 27.6248 23.1667 29.5976 26.1421 30.5678C28.7723 31.4224 35.167 31.8993 42.9097 28.9074C51.573 25.5537 58.3459 16.233 56.3569 8.42468C54.3675 0.501081 41.2165 -2.11262 28.7723 2.30924C21.3751 4.93986 13.3528 9.08216 7.58282 14.4742C0.727759 20.8851 -0.357346 26.4579 0.0864963 28.7924C1.68137 37.0774 13.1064 42.4694 17.6763 46.464C17.4461 46.5955 17.2321 46.7108 17.0516 46.8095C14.7664 47.9436 6.05387 52.497 3.88401 57.3136C1.41838 62.7713 4.27885 66.6841 6.16915 67.2097C12.0378 68.8373 18.0708 65.9113 21.3092 61.078C24.5476 56.2451 24.1531 49.9654 22.6573 47.0887C22.6407 47.0559 22.6245 47.0228 22.5913 46.99C23.1832 46.6449 23.7914 46.2832 24.3833 45.938C25.4712 45.2949 26.5728 44.6755 27.6876 44.0802C27.1285 45.6091 26.7174 47.4338 26.5203 50.0641C26.2736 53.1548 27.5392 57.1656 29.1996 58.7435C29.9396 59.4345 30.8107 59.4507 31.3698 59.4507C33.3095 59.4507 34.181 57.8396 35.1508 55.9328C36.3342 53.5986 37.4028 50.8862 37.4028 50.8862C37.4028 50.8862 36.0712 58.2179 39.6879 58.2179C41.0029 58.2179 42.3344 56.5081 42.9263 55.637V55.6532C42.9263 55.6532 42.9591 55.6039 43.025 55.4889C43.1565 55.2753 43.2387 55.1434 43.2387 55.1434V55.111C43.7646 54.1902 44.9485 52.1025 46.7073 48.6339C48.9758 44.1627 51.1623 38.5735 51.1623 38.5735C51.1623 38.5735 51.3597 39.9379 52.0334 42.2064C52.4282 43.538 53.2496 45.001 53.9074 46.4146C53.3815 47.1546 53.0525 47.5653 53.0525 47.5653L53.0691 47.5819C52.6415 48.1407 52.1814 48.7488 51.6717 49.3411C49.8797 51.4778 47.743 53.9275 47.4469 54.634C47.1014 55.4724 47.1839 56.0808 47.8417 56.574C48.3183 56.9357 49.1729 56.9847 50.0444 56.9357C51.6554 56.8205 52.7896 56.426 53.3483 56.1795C54.2198 55.8672 55.239 55.3902 56.1922 54.6834C57.9514 53.3846 59.0196 51.5271 58.9212 49.0781C58.8719 47.73 58.428 46.3819 57.8855 45.1159C58.0501 44.8861 58.1978 44.6559 58.3624 44.4256C61.1404 40.3651 63.2941 35.9101 63.2941 35.9101C63.2941 35.9101 63.4915 37.2745 64.1652 39.5434C64.4941 40.6941 65.1681 41.9434 65.7597 43.1597C63.146 45.2805 61.5349 47.7462 60.9596 49.3573C59.9242 52.3492 60.7294 53.697 62.2583 54.0093C62.9486 54.1574 63.935 53.8285 64.6584 53.5161C65.5789 53.2204 66.664 52.7109 67.6997 51.9544C69.4589 50.656 71.1517 48.8475 71.053 46.3984C71.0037 45.2805 70.7079 44.1789 70.2968 43.1103C72.5161 42.1902 75.3765 41.6804 79.0256 42.1077C86.8509 43.0282 88.396 47.9105 88.0999 49.9657C87.8041 52.0203 86.1603 53.1382 85.6181 53.4833C85.0751 53.8288 84.8946 53.9438 84.944 54.1902C85.0096 54.5519 85.2726 54.5357 85.733 54.4697C86.3742 54.3548 89.8428 52.8093 89.9906 49.0283C90.2373 44.1954 85.6343 38.9187 77.497 38.968V38.968ZM17.1337 59.3192C14.5362 62.1466 10.9199 63.2151 9.35819 62.3112C7.68153 61.341 8.33901 57.1656 11.528 54.174C13.4677 52.3492 15.9665 50.6557 17.6269 49.6203C18.0048 49.3901 18.564 49.0615 19.238 48.6504C19.3529 48.5845 19.4189 48.5517 19.4189 48.5517L19.8133 48.3049C20.9802 52.5791 19.8627 56.3438 17.1337 59.3192V59.3192ZM36.0385 46.464C35.1342 48.667 33.2439 54.3055 32.0932 53.9931C31.1068 53.7301 30.4984 49.456 31.8958 45.2312C32.6026 43.1103 34.0985 40.5788 34.9699 39.5927C36.3836 38.0144 37.9453 37.4881 38.3232 38.1297C38.8002 38.968 36.5972 45.0831 36.0385 46.464V46.464ZM51.6389 53.9272C51.2606 54.1246 50.8993 54.2561 50.7346 54.1574C50.6197 54.0915 50.8993 53.8285 50.8993 53.8285C50.8993 53.8285 52.8555 51.7245 53.6279 50.7709C54.0721 50.2122 54.5977 49.5547 55.1568 48.8147V49.0283C55.1568 51.5437 52.7236 53.2369 51.6385 53.9272H51.6389ZM63.672 51.182C63.3924 50.9846 63.4418 50.3271 64.3788 48.2722C64.7405 47.4666 65.5951 46.1189 67.0584 44.8201C67.2227 45.3461 67.338 45.8559 67.3214 46.3325C67.3049 49.5053 65.0367 50.6888 63.672 51.182Z" fill="#CD6799"/>
</svg>
