<svg width="100%" viewBox="0 0 90 91" fill="none" xmlns="http://www.w3.org/2000/svg">
<g clip-path="url(#clip0_37_54)">
<path d="M0 0.167969H90V90.168H0V0.167969Z" fill="#F7DF1E"/>
<path d="M23.6644 75.3784L30.5515 71.2102C31.8804 73.5661 33.0891 75.5594 35.9884 75.5594C38.7675 75.5594 40.5201 74.4724 40.5201 70.2438V41.4867H48.9776V70.3633C48.9776 79.1232 43.8427 83.1106 36.3509 83.1106C29.5851 83.1106 25.6578 79.6066 23.6641 75.3777L23.6644 75.3784ZM53.5715 74.472L60.4579 70.485C62.2709 73.4455 64.6271 75.6202 68.7952 75.6202C72.2999 75.6202 74.5345 73.868 74.5345 71.4514C74.5345 68.5517 72.2388 67.5245 68.3723 65.8334L66.2583 64.9264C60.1563 62.3294 56.1087 59.0669 56.1087 52.1798C56.1087 45.8362 60.9416 41.0029 68.4936 41.0029C73.8704 41.0029 77.7368 42.8761 80.5156 47.7695L73.9301 51.9987C72.4799 49.4011 70.9098 48.3741 68.4932 48.3741C66.0161 48.3741 64.4453 49.9449 64.4453 51.9987C64.4453 54.536 66.0161 55.5636 69.6407 57.1344L71.755 58.0404C78.9445 61.1218 82.992 64.263 82.992 71.3308C82.992 78.9436 77.0112 83.1117 68.9763 83.1117C61.1227 83.1117 56.0479 79.3661 53.5711 74.4724" fill="black"/>
</g>
<defs>
<clipPath id="clip0_37_54">
<rect width="90" height="90" fill="white" transform="translate(0 0.167969)"/>
</clipPath>
</defs>
</svg>
