<svg width="32" height="32" viewBox="0 0 32 32" fill="none" xmlns="http://www.w3.org/2000/svg">
<path d="M9.01824 13.4512C9.01824 13.8451 9.06092 14.1643 9.13538 14.3985C9.2299 14.6619 9.34371 14.918 9.47588 15.1647C9.52911 15.2499 9.55033 15.335 9.55033 15.4096C9.55033 15.5159 9.48655 15.6224 9.34819 15.7289L8.67774 16.1758C8.58194 16.2397 8.48614 16.2716 8.40089 16.2716C8.29455 16.2716 8.18808 16.2184 8.08161 16.1226C7.93823 15.9685 7.80996 15.801 7.69855 15.6224C7.59208 15.4416 7.48561 15.2392 7.3686 14.9945C6.53844 15.9736 5.49535 16.4632 4.23957 16.4632C3.34564 16.4632 2.6325 16.2077 2.11095 15.697C1.58953 15.186 1.32349 14.5048 1.32349 13.6535C1.32349 12.7489 1.64277 12.0145 2.292 11.4611C2.94111 10.9076 3.80328 10.6309 4.89948 10.6309C5.26132 10.6309 5.63384 10.6628 6.02757 10.716C6.42143 10.7693 6.82584 10.8544 7.25158 10.9502V10.1733C7.25158 9.36432 7.08121 8.80034 6.75126 8.47039C6.41076 8.14043 5.83598 7.98073 5.01649 7.98073C4.64398 7.98073 4.26092 8.02342 3.86706 8.11921C3.47333 8.21489 3.09014 8.33203 2.71762 8.48106C2.54737 8.55551 2.41969 8.59807 2.34511 8.61942C2.27066 8.64076 2.21742 8.65131 2.17486 8.65131C2.02583 8.65131 1.95138 8.54484 1.95138 8.32135V7.79981C1.95138 7.62956 1.97272 7.50187 2.02583 7.42742C2.07906 7.35284 2.17486 7.27839 2.32389 7.20393C2.69641 7.01234 3.14337 6.85264 3.66479 6.72495C4.18647 6.58659 4.7399 6.52281 5.32523 6.52281C6.59181 6.52281 7.51776 6.81007 8.11376 7.38486C8.69908 7.95951 8.99714 8.83223 8.99714 10.003V13.4512H9.01849H9.01824ZM4.69721 15.0689C5.04851 15.0689 5.41035 15.0052 5.79342 14.8774C6.1766 14.7497 6.51723 14.5155 6.80449 14.1962C6.97487 13.9941 7.10255 13.7706 7.16633 13.5151C7.23024 13.2597 7.2728 12.951 7.2728 12.5891V12.1422C6.95005 12.0636 6.62314 12.0032 6.29362 11.9613C5.96181 11.9191 5.62769 11.8978 5.29321 11.8974C4.58007 11.8974 4.05865 12.0357 3.70748 12.3231C3.35619 12.6105 3.18594 13.0149 3.18594 13.547C3.18594 14.0472 3.31362 14.4197 3.57967 14.6752C3.83517 14.9413 4.20768 15.0689 4.69721 15.0689ZM13.2435 16.2184C13.0519 16.2184 12.9242 16.1865 12.8391 16.1119C12.7539 16.0481 12.6794 15.8991 12.6156 15.697L10.1146 7.46998C10.0505 7.25704 10.0186 7.11868 10.0186 7.04423C10.0186 6.87398 10.1038 6.77806 10.2741 6.77806H11.3171C11.5192 6.77806 11.6577 6.81007 11.7322 6.88453C11.8173 6.94843 11.8812 7.09746 11.945 7.2996L13.733 14.3453L15.3933 7.2996C15.4465 7.08679 15.5104 6.94843 15.5954 6.88453C15.6807 6.82075 15.8297 6.77818 16.0213 6.77818H16.8727C17.0748 6.77818 17.2133 6.81007 17.2983 6.88453C17.3836 6.94843 17.458 7.09746 17.5006 7.2996L19.1822 14.4304L21.0233 7.2996C21.0871 7.08679 21.1617 6.94843 21.2362 6.88453C21.3213 6.82075 21.4596 6.77818 21.6512 6.77818H22.641C22.8113 6.77818 22.9071 6.86331 22.9071 7.04423C22.9071 7.09746 22.8965 7.1507 22.8858 7.21448C22.8751 7.27839 22.8539 7.36351 22.8113 7.48065L20.2463 15.7075C20.1825 15.9204 20.1081 16.0588 20.0228 16.1226C19.9377 16.1865 19.7993 16.2291 19.6185 16.2291H18.7033C18.501 16.2291 18.3626 16.1972 18.2774 16.1226C18.1923 16.0481 18.1178 15.9098 18.0752 15.697L16.4255 8.83223L14.7865 15.6862C14.7334 15.8991 14.6695 16.0375 14.5844 16.1119C14.4992 16.1865 14.3502 16.2184 14.1587 16.2184H13.2433H13.2435ZM26.9195 16.5058C26.3661 16.5058 25.8127 16.4419 25.2806 16.3142C24.7484 16.1865 24.3334 16.048 24.0567 15.8886C23.8863 15.7926 23.7692 15.6863 23.7267 15.5905C23.6853 15.4965 23.6635 15.3951 23.6628 15.2924V14.7497C23.6628 14.5262 23.748 14.4197 23.9077 14.4197C23.9728 14.42 24.0375 14.4308 24.0993 14.4517C24.163 14.4731 24.2588 14.5155 24.3653 14.5581C24.7412 14.7234 25.1336 14.8483 25.536 14.9306C25.9528 15.0152 26.3771 15.058 26.8025 15.0583C27.473 15.0583 27.9945 14.9413 28.3564 14.7071C28.7182 14.4729 28.9098 14.1324 28.9098 13.696C28.9098 13.3981 28.814 13.1533 28.6224 12.951C28.4308 12.7489 28.069 12.5679 27.5476 12.3976L26.0043 11.9187C25.2273 11.6739 24.6527 11.312 24.3014 10.833C23.9502 10.3647 23.7693 9.84331 23.7693 9.28987C23.7693 8.8429 23.8651 8.44904 24.0567 8.10842C24.2482 7.76792 24.5037 7.46998 24.8229 7.23582C25.1422 6.991 25.5041 6.81007 25.9298 6.68239C26.3554 6.5547 26.8024 6.50146 27.2707 6.50146C27.5049 6.50146 27.7497 6.51214 27.9839 6.54403C28.2287 6.57592 28.4522 6.61848 28.6757 6.66104C28.8885 6.71428 29.0907 6.76751 29.2823 6.83142C29.4739 6.8952 29.6228 6.95911 29.7293 7.02289C29.8783 7.10814 29.9847 7.19326 30.0486 7.28906C30.1125 7.37418 30.1444 7.4912 30.1444 7.64023V8.14043C30.1444 8.36392 30.0592 8.48106 29.8995 8.48106C29.8144 8.48106 29.6761 8.43837 29.4953 8.35324C28.8885 8.07653 28.2073 7.93817 27.4518 7.93817C26.8451 7.93817 26.3661 8.03396 26.0362 8.23623C25.7063 8.43837 25.536 8.7471 25.536 9.1834C25.536 9.48146 25.6424 9.73684 25.8552 9.9391C26.0682 10.1412 26.4619 10.3435 27.026 10.5244L28.5373 11.0034C29.3035 11.2482 29.857 11.5887 30.1869 12.025C30.5169 12.4615 30.6766 12.9617 30.6766 13.5151C30.6766 13.9727 30.5807 14.3878 30.3997 14.7497C30.2083 15.1115 29.9528 15.4308 29.6228 15.6863C29.2929 15.9523 28.8991 16.1439 28.4415 16.2823C27.9625 16.4313 27.4623 16.5058 26.9195 16.5058V16.5058Z" fill="#A4B1C5"/>
<path d="M28.9307 21.5384C25.4292 24.1247 20.3419 25.4976 15.9677 25.4976C9.83736 25.4976 4.31379 23.2306 0.141796 19.463C-0.188157 19.1651 0.10978 18.7607 0.503513 18.9947C5.01613 21.613 10.5824 23.1987 16.3402 23.1987C20.2248 23.1987 24.4926 22.3899 28.4199 20.7296C29.0052 20.4634 29.5054 21.1128 28.9307 21.5384V21.5384ZM30.3888 19.8781C29.9419 19.3034 27.4301 19.6014 26.2913 19.7397C25.9507 19.7824 25.8974 19.4843 26.2062 19.2609C28.207 17.8559 31.4957 18.2605 31.8788 18.7286C32.262 19.2076 31.7723 22.4962 29.8992 24.0714C29.6119 24.3163 29.3352 24.1886 29.4629 23.8693C29.8885 22.8155 30.8358 20.4422 30.3888 19.8781V19.8781Z" fill="#FF9900"/>
</svg>
