<svg width="32" height="32" viewBox="0 0 32 32" fill="none" xmlns="http://www.w3.org/2000/svg">
<path d="M16.0009 29.9996C15.6232 29.9998 15.2521 29.9004 14.9249 29.7116L11.5009 27.6846C10.9899 27.3986 11.2389 27.2976 11.4079 27.2386C11.9514 27.0707 12.4718 26.8356 12.9569 26.5386C12.9976 26.5198 13.0423 26.5117 13.0869 26.515C13.1315 26.5184 13.1746 26.533 13.2119 26.5576L15.8429 28.1206C15.8919 28.1465 15.9465 28.1601 16.0019 28.1601C16.0574 28.1601 16.112 28.1465 16.1609 28.1206L26.4209 22.1986C26.469 22.1698 26.5087 22.1291 26.5362 22.0804C26.5637 22.0316 26.5781 21.9766 26.5779 21.9206V10.0746C26.578 10.0178 26.5634 9.96185 26.5355 9.91228C26.5077 9.86271 26.4675 9.82115 26.4189 9.79161L16.1589 3.87461C16.1106 3.84736 16.056 3.83305 16.0004 3.83305C15.9449 3.83305 15.8903 3.84736 15.8419 3.87461L5.58794 9.79361C5.53903 9.82254 5.49842 9.8636 5.47004 9.91283C5.44166 9.96206 5.42647 10.0178 5.42594 10.0746V21.9156C5.42608 21.9715 5.44107 22.0263 5.46936 22.0744C5.49765 22.1225 5.53823 22.1623 5.58694 22.1896L8.40094 23.8136C9.92594 24.5756 10.8599 23.6776 10.8599 22.7756V11.0846C10.8599 11.005 10.8916 10.9287 10.9478 10.8725C11.0041 10.8162 11.0804 10.7846 11.1599 10.7846H12.4599C12.5395 10.7846 12.6158 10.8162 12.6721 10.8725C12.7283 10.9287 12.7599 11.005 12.7599 11.0846V22.7766C12.7599 24.8116 11.6519 25.9766 9.72194 25.9766C8.88932 25.9911 8.06976 25.7684 7.35894 25.3346L4.66194 23.7876C4.33453 23.5969 4.06286 23.3237 3.87405 22.9952C3.68524 22.6668 3.5859 22.2945 3.58594 21.9156V10.0746C3.58497 9.69514 3.68389 9.3221 3.87277 8.99297C4.06164 8.66384 4.33382 8.39022 4.66194 8.19961L14.9229 2.27561C15.2535 2.09478 15.6242 2 16.0009 2C16.3777 2 16.7484 2.09478 17.0789 2.27561L27.3389 8.19961C27.6663 8.3899 27.9381 8.66273 28.127 8.99086C28.316 9.31899 28.4156 9.69095 28.4159 10.0696V21.9156C28.4154 22.2945 28.3157 22.6666 28.1267 22.995C27.9378 23.3234 27.6662 23.5967 27.3389 23.7876L17.0789 29.7116C16.7512 29.9007 16.3793 30.0001 16.0009 29.9996V29.9996Z" fill="#83CD29"/>
<path d="M14.0547 17.9531C14.0547 17.8736 14.0863 17.7972 14.1426 17.741C14.1988 17.6847 14.2751 17.6531 14.3547 17.6531H15.6817C15.7526 17.6533 15.8211 17.6787 15.8751 17.7246C15.9291 17.7706 15.9651 17.8342 15.9767 17.9041C16.1767 19.2551 16.7767 19.9361 19.4897 19.9361C21.6507 19.9361 22.5717 19.4471 22.5717 18.3001C22.5717 17.6391 22.3107 17.1481 18.9517 16.8191C16.1437 16.5411 14.4077 15.9191 14.4077 13.6751C14.4077 11.6051 16.1527 10.3701 19.0777 10.3701C22.3647 10.3701 23.9917 11.5111 24.1977 13.9591C24.2008 14 24.1956 14.0411 24.1822 14.0798C24.1689 14.1186 24.1477 14.1542 24.1201 14.1845C24.0924 14.2147 24.0589 14.239 24.0215 14.2558C23.9841 14.2726 23.9437 14.2816 23.9027 14.2821H22.5667C22.4997 14.2812 22.4349 14.2578 22.3827 14.2158C22.3305 14.1737 22.2939 14.1154 22.2787 14.0501C21.9597 12.6291 21.1787 12.1751 19.0787 12.1751C16.7187 12.1751 16.4447 12.9971 16.4447 13.6131C16.4447 14.3591 16.7687 14.5771 19.9547 14.9981C23.1077 15.4151 24.6057 16.0051 24.6057 18.2211C24.6057 20.4571 22.7417 21.7371 19.4907 21.7371C14.9957 21.7431 14.0547 19.6821 14.0547 17.9531V17.9531Z" fill="#83CD29"/>
</svg>
