<svg width="33" height="33" viewBox="0 0 33 33" fill="none" xmlns="http://www.w3.org/2000/svg">
<path fill-rule="evenodd" clip-rule="evenodd" d="M0.996094 15.9998C0.996197 13.2388 1.71072 10.5249 3.07018 8.12182C4.42963 5.71876 6.38777 3.70838 8.75418 2.28616C11.1206 0.863937 13.8148 0.0782693 16.5747 0.00555164C19.3346 -0.067166 22.0664 0.575541 24.5044 1.87118C26.9424 3.16682 29.0037 5.07129 30.4878 7.39943C31.9719 9.72756 32.8284 12.4001 32.9739 15.1572C33.1193 17.9144 32.5489 20.6622 31.3181 23.1336C30.0872 25.605 28.2378 27.7159 25.9497 29.2609L11.4644 8.98095C11.3331 8.79702 11.1468 8.65952 10.9324 8.58827C10.718 8.51703 10.4865 8.51572 10.2712 8.58453C10.056 8.65335 9.86821 8.78873 9.73489 8.97117C9.60157 9.15361 9.52962 9.37367 9.52943 9.59963V25.6H11.6628V12.9277L24.1001 30.3404C21.6604 31.5493 18.9526 32.1157 16.2329 31.9858C13.5133 31.8559 10.8717 31.0341 8.55835 29.5982C6.24497 28.1623 4.33629 26.1598 3.01296 23.7802C1.68963 21.4006 0.995441 18.7226 0.996094 15.9998V15.9998ZM22.3294 21.3332V8.53294H24.4628V21.3332H22.3294Z" fill="#A6B1C6"/>
</svg>
