<svg width="33" height="32" viewBox="0 0 33 32" fill="none" xmlns="http://www.w3.org/2000/svg">
<g clip-path="url(#clip0_415_35165)">
<path fill-rule="evenodd" clip-rule="evenodd" d="M28.8433 1.0685C30.1294 1.75122 31.1805 2.80482 31.8602 4.0925C32.5562 5.3965 32.9268 6.68975 32.9268 10.255V16.5174C32.9267 16.5569 32.915 16.5955 32.893 16.6283C32.871 16.6611 32.8398 16.6867 32.8033 16.7018C32.7668 16.7169 32.7266 16.7209 32.6879 16.7132C32.6491 16.7055 32.6135 16.6865 32.5855 16.6586V16.6577L30.2255 14.2934C30.0381 14.1056 29.9329 13.8512 29.933 13.5859V10.6914C29.933 8.01675 29.6548 7.047 29.133 6.06925C28.6231 5.10362 27.8346 4.3136 26.8699 3.80175C25.905 3.28362 24.9472 3.00575 22.342 3H18.4407C18.4012 2.99979 18.3627 2.98791 18.33 2.96587C18.2973 2.94384 18.2718 2.91262 18.2568 2.87615C18.2418 2.83967 18.2379 2.79957 18.2456 2.76089C18.2533 2.72221 18.2723 2.68667 18.3002 2.65875L20.6602 0.293375C20.7527 0.200425 20.8627 0.126661 20.9838 0.0763167C21.1049 0.025972 21.2348 3.70947e-05 21.3659 0L22.693 0C26.2513 0 27.5419 0.3715 28.8433 1.0685ZM23.9464 5C26.1508 5 27.9375 6.79113 27.9375 9V11.5325C27.9374 11.5716 27.9258 11.6097 27.9042 11.6423C27.8825 11.6748 27.8519 11.7003 27.816 11.7156C27.78 11.7309 27.7404 11.7354 27.702 11.7284C27.6635 11.7215 27.628 11.7034 27.5997 11.6765L24.3819 8.59375C24.1762 8.38739 23.9277 8.2287 23.6539 8.12887C23.4284 8.04346 23.1893 7.99979 22.9482 8H13.4494C13.4099 7.99993 13.3713 7.98817 13.3385 7.96619C13.3057 7.9442 13.2801 7.91299 13.265 7.87649C13.2499 7.83999 13.2459 7.79983 13.2536 7.76108C13.2613 7.72232 13.2803 7.68672 13.3082 7.65875L15.6717 5.2925C15.7642 5.19984 15.8741 5.12631 15.9951 5.07612C16.116 5.02594 16.2457 5.00007 16.3767 5H23.9464V5Z" fill="#E55638"/>
<path fill-rule="evenodd" clip-rule="evenodd" d="M30.2734 17.3422L32.6343 19.7075C32.8213 19.8955 32.9264 20.1498 32.9268 20.415V21.7457C32.9268 25.3111 32.556 26.6045 31.86 27.9085C31.1803 29.1962 30.1292 30.2498 28.8431 30.9325C27.5419 31.6285 26.2511 32 22.6929 32H16.4449C16.4054 31.9998 16.367 31.9879 16.3343 31.9658C16.3016 31.9438 16.2761 31.9126 16.2611 31.8761C16.2461 31.8396 16.2422 31.7995 16.25 31.7609C16.2577 31.7222 16.2767 31.6867 16.3045 31.6587V31.6595L18.6645 29.2942C18.757 29.2013 18.867 29.1275 18.9881 29.0772C19.1092 29.0268 19.2391 29.0009 19.3703 29.0009H22.2583C24.9266 29.0009 25.8938 28.7226 26.8698 28.1991C27.8344 27.6873 28.6229 26.8973 29.1329 25.9316C29.6546 24.9537 29.9329 23.984 29.9329 21.3094V17.4835C29.9331 17.4441 29.9449 17.4057 29.9669 17.3731C29.9888 17.3404 30.0199 17.3149 30.0562 17.2998C30.0926 17.2848 30.1326 17.2807 30.1712 17.2883C30.2098 17.2958 30.2454 17.3146 30.2734 17.3422V17.3422ZM25.2848 12.3412L27.6456 14.7092C27.8326 14.8972 27.9374 15.1516 27.9373 15.4167V23.0025C27.9373 25.2114 26.1505 27.0025 23.946 27.0025H21.419C21.38 27.0023 21.3418 26.9907 21.3093 26.9691C21.2768 26.9475 21.2513 26.9168 21.236 26.8809C21.2207 26.845 21.2162 26.8054 21.2232 26.767C21.2301 26.7286 21.2481 26.693 21.275 26.6647V26.6639L24.3505 23.4381C24.5571 23.2322 24.7159 22.9834 24.8155 22.7092C24.9004 22.4833 24.9438 22.2439 24.9434 22.0025V12.4825C24.9434 12.443 24.9552 12.4043 24.9772 12.3715C24.9992 12.3386 25.0304 12.313 25.0669 12.2979C25.1034 12.2828 25.1436 12.2788 25.1824 12.2866C25.2212 12.2943 25.2568 12.3133 25.2848 12.3412V12.3412Z" fill="#F4C942"/>
<path fill-rule="evenodd" clip-rule="evenodd" d="M1.33659 15.3414L3.69834 17.7067C3.88537 17.8947 3.99051 18.149 3.99084 18.4142V21.3086C3.99084 23.9832 4.26809 24.953 4.79084 25.9307C5.30056 26.8962 6.0887 27.6862 7.05297 28.1982C8.02897 28.722 8.99697 29.0001 11.6655 29.0001H15.4823C15.5219 29 15.5607 29.0116 15.5937 29.0335C15.6266 29.0554 15.6524 29.0866 15.6676 29.1232C15.6828 29.1597 15.6869 29.1999 15.6792 29.2388C15.6716 29.2776 15.6526 29.3133 15.6246 29.3414L13.2627 31.7067C13.1703 31.7996 13.0605 31.8733 12.9395 31.9237C12.8186 31.974 12.6889 32 12.5578 32.0001H11.2298C7.67159 32.0001 6.38184 31.6286 5.08059 30.9316C3.79415 30.249 2.74267 29.1954 2.06272 27.9076C1.37372 26.6167 1.00359 25.3364 0.996219 21.8514L0.996094 15.4826C0.996307 15.4433 1.00813 15.4048 1.03007 15.3722C1.05201 15.3395 1.08311 15.314 1.11946 15.299C1.15581 15.2839 1.1958 15.2799 1.23442 15.2874C1.27305 15.2949 1.30859 15.3137 1.33659 15.3414V15.3414ZM6.32322 20.3236H6.32234L9.54184 23.4064C9.74725 23.6127 9.99548 23.7714 10.269 23.8712C10.4944 23.957 10.7337 24.0006 10.9748 24.0001H20.4736C20.513 24.0003 20.5515 24.0122 20.5842 24.0343C20.6169 24.0563 20.6423 24.0876 20.6573 24.124C20.6723 24.1605 20.6762 24.2006 20.6685 24.2392C20.6608 24.2779 20.6418 24.3134 20.614 24.3414L18.2513 26.7076C18.0643 26.8946 17.8108 26.9998 17.5463 27.0001H9.97672C9.452 26.9995 8.93253 26.8956 8.44797 26.6943C7.96341 26.493 7.52325 26.1982 7.15263 25.8268C6.782 25.4553 6.48817 25.0145 6.28791 24.5295C6.08765 24.0445 5.98488 23.5248 5.98547 23.0001V20.4676C5.98564 20.4285 5.99725 20.3904 6.01885 20.3579C6.04046 20.3253 6.07112 20.2998 6.10705 20.2845C6.14299 20.2692 6.18262 20.2647 6.22105 20.2717C6.25949 20.2786 6.29505 20.2967 6.32334 20.3236H6.32322Z" fill="#7B8FEA"/>
<path fill-rule="evenodd" clip-rule="evenodd" d="M12.5036 5C12.5426 5.00019 12.5808 5.01181 12.6133 5.03341C12.6458 5.05501 12.6713 5.08565 12.6866 5.12156C12.7019 5.15747 12.7063 5.19707 12.6994 5.23549C12.6925 5.2739 12.6745 5.30945 12.6476 5.33775L9.57122 8.5645C9.36492 8.7704 9.2065 9.01921 9.10722 9.29325C9.02195 9.51912 8.97829 9.75857 8.97834 10V19.52C8.97798 19.5593 8.96606 19.5976 8.94406 19.6302C8.92206 19.6627 8.89096 19.6881 8.85464 19.7031C8.81832 19.718 8.77839 19.722 8.73983 19.7144C8.70128 19.7069 8.6658 19.6881 8.63784 19.6605L6.27697 17.2925C6.09011 17.1048 5.98529 16.8506 5.98547 16.5858V9C5.98547 6.79113 7.77209 5 9.97659 5H12.5036ZM17.4778 0C17.5173 0.000214876 17.5558 0.0120877 17.5885 0.0341252C17.6212 0.0561628 17.6467 0.0873811 17.6617 0.123854C17.6767 0.160327 17.6806 0.200425 17.6729 0.239107C17.6652 0.277789 17.6462 0.313326 17.6183 0.34125L15.2583 2.70662C15.1658 2.7995 15.0558 2.87322 14.9347 2.92356C14.8136 2.9739 14.6837 2.99987 14.5526 3H11.6646C8.99609 3 8.02809 3.27825 7.05209 3.80175C6.08745 4.3136 5.29896 5.10362 4.78897 6.06925C4.27272 7.03675 3.99484 7.9965 3.98897 10.6076V14.5174C3.98873 14.5567 3.9769 14.5951 3.95497 14.6277C3.93303 14.6604 3.90196 14.6858 3.86563 14.7009C3.82931 14.716 3.78934 14.72 3.75074 14.7125C3.71214 14.705 3.67661 14.6862 3.64859 14.6586L1.28947 12.2934C1.1965 12.2005 1.12274 12.0902 1.0724 11.9688C1.02206 11.8474 0.996133 11.7173 0.996094 11.5859L0.996094 10.255C0.996094 6.68975 1.36672 5.39625 2.06272 4.0925C2.74241 2.80482 3.79352 1.75122 5.07959 1.0685C6.36797 0.3785 7.64584 0.0075 11.123 0H17.478H17.4778Z" fill="#D97EE8"/>
</g>
<defs>
<clipPath id="clip0_415_35165">
<rect width="32" height="32" fill="white" transform="translate(0.996094)"/>
</clipPath>
</defs>
</svg>
