<svg width="33" height="32" viewBox="0 0 33 32" fill="none" xmlns="http://www.w3.org/2000/svg">
<path d="M16.9961 18.4736C18.3768 18.4736 19.4961 17.3543 19.4961 15.9736C19.4961 14.5929 18.3768 13.4736 16.9961 13.4736C15.6154 13.4736 14.4961 14.5929 14.4961 15.9736C14.4961 17.3543 15.6154 18.4736 16.9961 18.4736Z" fill="#00D8FF"/>
<path d="M16.9961 21.7063C13.9912 21.779 10.9939 21.3739 8.11609 20.5063C6.78672 20.0849 5.54683 19.421 4.45909 18.5483C4.04402 18.2501 3.69837 17.8657 3.44584 17.4214C3.19331 16.9771 3.03988 16.4834 2.99609 15.9743C2.99609 14.3213 4.81209 12.7013 7.85409 11.6413C10.8088 10.702 13.896 10.2468 16.9961 10.2933C20.0548 10.2505 23.1006 10.6975 26.0181 11.6173C27.2984 12.0254 28.4962 12.6572 29.5561 13.4833C29.9641 13.7675 30.3045 14.138 30.5534 14.5685C30.8022 14.9989 30.9534 15.4789 30.9961 15.9743C30.9961 17.6923 28.9661 19.4333 25.6961 20.5153C22.874 21.3546 19.9399 21.7563 16.9961 21.7063V21.7063ZM16.9961 11.4893C14.0302 11.4496 11.0769 11.8824 8.24709 12.7713C5.44709 13.7483 4.19209 15.0843 4.19209 15.9713C4.19209 16.8993 5.54109 18.3583 8.50309 19.3713C11.2562 20.1971 14.1227 20.5816 16.9961 20.5103C19.8125 20.5606 22.62 20.1796 25.3211 19.3803C28.3961 18.3613 29.7961 16.9003 29.7961 15.9743C29.7456 15.6565 29.6298 15.3526 29.456 15.0819C29.2821 14.8111 29.054 14.5794 28.7861 14.4013C27.8378 13.6684 26.7678 13.1085 25.6251 12.7473C22.8341 11.871 19.9211 11.4463 16.9961 11.4893V11.4893Z" fill="#00D8FF"/>
<path d="M11.3157 28.4435C10.8492 28.4542 10.3882 28.341 9.9797 28.1155C8.5477 27.2895 8.0517 24.9075 8.6527 21.7425C9.31535 18.7136 10.4635 15.8118 12.0527 13.1495C13.5434 10.4786 15.4519 8.06338 17.7057 5.99546C18.6989 5.09017 19.8446 4.368 21.0897 3.86246C21.5401 3.6514 22.0313 3.54199 22.5287 3.54199C23.0261 3.54199 23.5173 3.6514 23.9677 3.86246C25.4567 4.72046 25.9497 7.34846 25.2547 10.7215C24.5716 13.586 23.4533 16.3289 21.9387 18.8545C20.5004 21.4938 18.6521 23.888 16.4627 25.9475C15.4335 26.8882 14.239 27.6304 12.9397 28.1365C12.4195 28.3295 11.8705 28.4333 11.3157 28.4435V28.4435ZM13.0887 13.7435C11.5728 16.2928 10.4724 19.0672 9.8287 21.9625C9.2757 24.8775 9.8067 26.6305 10.5787 27.0765C11.3787 27.5395 13.3207 27.1005 15.6787 25.0405C17.7687 23.0674 19.5329 20.7757 20.9057 18.2505C22.3566 15.836 23.4294 13.2136 24.0867 10.4745C24.7407 7.29946 24.1757 5.35546 23.3737 4.89346C23.0731 4.77829 22.7519 4.72673 22.4304 4.74205C22.1088 4.75737 21.794 4.83923 21.5057 4.98246C20.3974 5.43981 19.3784 6.08909 18.4957 6.90046C16.3424 8.88125 14.5194 11.1934 13.0957 13.7495L13.0887 13.7435Z" fill="#00D8FF"/>
<path d="M22.6722 28.456C21.3172 28.456 19.5962 27.636 17.8042 26.095C15.5109 24.0083 13.5701 21.5644 12.0572 18.858C10.4879 16.2323 9.34883 13.3725 8.68316 10.387C8.39447 9.07347 8.34098 7.71917 8.52516 6.38698C8.56774 5.89279 8.71823 5.41395 8.966 4.98424C9.21377 4.55453 9.55279 4.18441 9.95916 3.89998C11.4462 3.03898 13.9692 3.92398 16.5442 6.20998C18.6848 8.23216 20.5026 10.5707 21.9342 13.144C23.5025 15.7083 24.6535 18.5055 25.3442 21.431C25.6453 22.7927 25.6917 24.1984 25.4812 25.577C25.4311 26.0854 25.2716 26.5769 25.0137 27.018C24.7559 27.459 24.4057 27.839 23.9872 28.132C23.5853 28.3547 23.1315 28.4665 22.6722 28.456V28.456ZM13.0922 18.256C14.5436 20.8424 16.3975 23.1813 18.5842 25.185C20.8332 27.12 22.6172 27.536 23.3842 27.085C24.1842 26.62 24.7742 24.722 24.1662 21.651C23.5 18.8579 22.396 16.1879 20.8952 13.74C19.529 11.2771 17.7939 9.03784 15.7502 7.09998C13.3262 4.94798 11.3602 4.46698 10.5592 4.93098C10.3095 5.13386 10.1046 5.3863 9.95747 5.67237C9.8103 5.95843 9.72405 6.2719 9.70416 6.59298C9.54517 7.78106 9.59696 8.98788 9.85716 10.158C10.4975 13.0131 11.5899 15.7476 13.0932 18.258L13.0922 18.256Z" fill="#00D8FF"/>
</svg>
