<svg width="33" height="32" viewBox="0 0 33 32" fill="none" xmlns="http://www.w3.org/2000/svg">
<g clip-path="url(#clip0_415_35094)">
<path d="M16.9961 0C25.8326 0 32.9961 7.1635 32.9961 16C32.9961 24.8365 25.8326 32 16.9961 32C8.15959 32 0.996094 24.8365 0.996094 16C0.996094 7.1635 8.15959 0 16.9961 0Z" fill="#3178C6"/>
<path d="M18.554 20.089V23.2178C19.0561 23.4785 19.6498 23.6741 20.3352 23.8045C21.0207 23.9349 21.7432 24 22.5027 24C23.2428 24 23.9461 23.9283 24.6122 23.7849C25.2783 23.6415 25.8625 23.4053 26.3645 23.076C26.8665 22.7469 27.264 22.3166 27.5568 21.7854C27.8497 21.2541 27.9961 20.5975 27.9961 19.8153C27.9961 19.2481 27.9125 18.7511 27.7451 18.3241C27.5801 17.901 27.3341 17.5141 27.021 17.1851C26.7056 16.8526 26.3275 16.5545 25.8866 16.2905C25.4457 16.0265 24.9485 15.7771 24.395 15.5425C23.9895 15.373 23.6258 15.2084 23.304 15.0487C22.9822 14.889 22.7087 14.7261 22.4833 14.5599C22.2581 14.3936 22.0843 14.2176 21.9621 14.0319C21.8397 13.8461 21.7786 13.6359 21.7786 13.4012C21.7786 13.1861 21.8333 12.9922 21.9427 12.8195C22.0522 12.6467 22.2066 12.4984 22.4061 12.3745C22.6057 12.2508 22.8502 12.1545 23.1398 12.0861C23.4295 12.0178 23.7513 11.9835 24.1053 11.9835C24.3628 11.9835 24.6347 12.003 24.9211 12.0422C25.2076 12.0812 25.4956 12.1415 25.7852 12.223C26.0742 12.3042 26.3565 12.4072 26.63 12.531C26.8955 12.6503 27.1493 12.7944 27.3878 12.9613V10.0378C26.918 9.85525 26.4047 9.72 25.848 9.632C25.2912 9.544 24.6525 9.5 23.9316 9.5C23.1978 9.5 22.5027 9.57988 21.8462 9.7395C21.1897 9.89925 20.6121 10.1486 20.1132 10.4875C19.6143 10.8265 19.2202 11.2582 18.9306 11.783C18.641 12.3077 18.4961 12.9351 18.4961 13.6652C18.4961 14.5974 18.7616 15.3925 19.2926 16.0509C19.8236 16.7092 20.6297 17.2666 21.7111 17.7229C22.1103 17.8877 22.5062 18.0605 22.8986 18.2411C23.2653 18.4105 23.5823 18.5865 23.8495 18.769C24.1166 18.9516 24.3273 19.1504 24.4818 19.3655C24.6363 19.5806 24.7136 19.825 24.7136 20.0987C24.715 20.2956 24.665 20.4894 24.5687 20.661C24.4722 20.8337 24.3258 20.9836 24.1295 21.1108C23.9332 21.2379 23.6886 21.3373 23.3957 21.409C23.1028 21.4806 22.7601 21.5165 22.3676 21.5165C21.6982 21.5165 21.0352 21.3975 20.3787 21.1596C19.7222 20.9217 19.114 20.5649 18.554 20.089V20.089ZM13.21 12.3177H17.2461V9.75H5.99609V12.3176H10.0126V23.75H13.2098V12.3176L13.21 12.3177Z" fill="white"/>
</g>
<defs>
<clipPath id="clip0_415_35094">
<rect width="32" height="32" fill="white" transform="translate(0.996094)"/>
</clipPath>
</defs>
</svg>
