<svg width="25" height="24" viewBox="0 0 25 24" fill="none" xmlns="http://www.w3.org/2000/svg">
<path d="M14.8238 4.26001C14.6252 4.6157 14.4482 4.98303 14.2938 5.36001C12.7766 5.12006 11.2311 5.12006 9.71382 5.36001C9.55941 4.98303 9.38243 4.6157 9.18382 4.26001C7.75461 4.50421 6.36523 4.94155 5.05382 5.56001C2.70876 8.9443 1.64526 13.053 2.05382 17.15C3.58206 18.2989 5.29728 19.1751 7.12382 19.74C7.53974 19.1906 7.91093 18.6087 8.23382 18C7.6379 17.7803 7.06512 17.5023 6.52382 17.17C6.67228 17.0712 6.81272 16.9609 6.94382 16.84C8.52228 17.6003 10.2518 17.9952 12.0038 17.9952C13.7559 17.9952 15.4854 17.6003 17.0638 16.84C17.2038 16.96 17.3438 17.07 17.4838 17.17C16.9396 17.4997 16.3674 17.7807 15.7738 18.01C16.0833 18.6325 16.4446 19.228 16.8538 19.79C18.6781 19.227 20.3903 18.3506 21.9138 17.2C22.3322 13.1022 21.2678 8.99019 18.9138 5.61001C17.6172 4.97875 16.2415 4.52468 14.8238 4.26001V4.26001ZM8.68382 14.81C8.18341 14.7741 7.71637 14.5457 7.38074 14.1728C7.04512 13.7999 6.86702 13.3114 6.88382 12.81C6.86448 12.3079 7.04171 11.8181 7.37784 11.4446C7.71396 11.0711 8.18248 10.8435 8.68382 10.81C9.18516 10.8435 9.65369 11.0711 9.98981 11.4446C10.3259 11.8181 10.5032 12.3079 10.4838 12.81C10.5032 13.3121 10.3259 13.8019 9.98981 14.1754C9.65369 14.5489 9.18516 14.7765 8.68382 14.81V14.81ZM15.3238 14.81C14.8234 14.7741 14.3564 14.5457 14.0207 14.1728C13.6851 13.7999 13.507 13.3114 13.5238 12.81C13.5045 12.3079 13.6817 11.8181 14.0178 11.4446C14.354 11.0711 14.8225 10.8435 15.3238 10.81C15.8261 10.841 16.2961 11.0679 16.6328 11.442C16.9694 11.816 17.1457 12.3073 17.1238 12.81C17.1457 13.3128 16.9694 13.804 16.6328 14.1781C16.2961 14.5521 15.8261 14.779 15.3238 14.81V14.81Z" fill="white"/>
</svg>
