<svg width="25" height="24" viewBox="0 0 25 24" fill="none" xmlns="http://www.w3.org/2000/svg">
<path fill-rule="evenodd" clip-rule="evenodd" d="M12.0297 2C6.52066 2 2.05566 6.465 2.05566 11.974C2.05566 16.38 4.91266 20.119 8.87666 21.439C9.37566 21.529 9.55566 21.222 9.55566 20.958C9.55566 20.721 9.54766 20.093 9.54466 19.262C6.76966 19.864 6.18366 17.924 6.18366 17.924C5.73166 16.772 5.07666 16.465 5.07666 16.465C4.17166 15.846 5.14566 15.86 5.14566 15.86C6.14766 15.93 6.67266 16.888 6.67266 16.888C7.56266 18.412 9.00866 17.972 9.57466 17.717C9.66566 17.072 9.92566 16.632 10.2097 16.383C7.99566 16.132 5.66766 15.276 5.66766 11.453C5.66766 10.366 6.05666 9.474 6.69166 8.778C6.59066 8.525 6.24566 7.51 6.79066 6.138C6.79066 6.138 7.62766 5.869 9.53266 7.159C10.3463 6.93767 11.1855 6.8247 12.0287 6.823C12.8718 6.82437 13.7111 6.93735 14.5247 7.159C16.4307 5.868 17.2667 6.138 17.2667 6.138C17.8117 7.51 17.4697 8.525 17.3657 8.778C18.0057 9.474 18.3897 10.365 18.3897 11.453C18.3897 15.286 16.0597 16.128 13.8377 16.375C14.1927 16.683 14.5127 17.291 14.5127 18.221C14.5127 19.555 14.5007 20.631 14.5007 20.958C14.5007 21.225 14.6787 21.535 15.1877 21.437C19.1497 20.115 22.0037 16.379 22.0037 11.974C22.0037 6.465 17.5387 2 12.0297 2Z" fill="white"/>
</svg>
