<svg width="25" height="24" viewBox="0 0 25 24" fill="none" xmlns="http://www.w3.org/2000/svg">
<path d="M4.98683 7.19704C6.19523 7.19704 7.17483 6.21744 7.17483 5.00904C7.17483 3.80065 6.19523 2.82104 4.98683 2.82104C3.77843 2.82104 2.79883 3.80065 2.79883 5.00904C2.79883 6.21744 3.77843 7.19704 4.98683 7.19704Z" fill="white"/>
<path d="M9.24112 8.85493V20.9939H13.0101V14.9909C13.0101 13.4069 13.3081 11.8729 15.2721 11.8729C17.2091 11.8729 17.2331 13.6839 17.2331 15.0909V20.9949H21.0041V14.3379C21.0041 11.0679 20.3001 8.55493 16.4781 8.55493C14.6431 8.55493 13.4131 9.56193 12.9101 10.5149H12.8591V8.85493H9.24112V8.85493ZM3.09912 8.85493H6.87412V20.9939H3.09912V8.85493Z" fill="white"/>
</svg>
