<svg width="25" height="24" viewBox="0 0 25 24" fill="none" xmlns="http://www.w3.org/2000/svg">
<path d="M19.6369 7.99704C19.6499 8.17204 19.6499 8.34604 19.6499 8.52004C19.6499 13.845 15.5969 19.981 8.18991 19.981C5.90791 19.981 3.78791 19.32 2.00391 18.172C2.32791 18.209 2.63991 18.222 2.97691 18.222C4.7899 18.2264 6.55155 17.6202 7.97791 16.501C7.13733 16.4858 6.32248 16.2085 5.64714 15.7078C4.97181 15.2071 4.46969 14.5079 4.21091 13.708C4.45991 13.745 4.70991 13.77 4.97191 13.77C5.33291 13.77 5.69591 13.72 6.03291 13.633C5.12067 13.4489 4.30038 12.9544 3.71152 12.2337C3.12267 11.5131 2.8016 10.6107 2.80291 9.68004V9.63004C3.33991 9.92904 3.96291 10.116 4.62291 10.141C4.07 9.77363 3.61663 9.27507 3.30325 8.68983C2.98987 8.1046 2.82622 7.4509 2.82691 6.78704C2.82691 6.03904 3.02591 5.35304 3.37491 4.75504C4.38704 6.00006 5.64941 7.01861 7.08024 7.7447C8.51107 8.4708 10.0785 8.88826 11.6809 8.97004C11.6189 8.67004 11.5809 8.35904 11.5809 8.04704C11.5806 7.518 11.6847 6.9941 11.887 6.50528C12.0893 6.01647 12.386 5.57232 12.7601 5.19823C13.1342 4.82414 13.5783 4.52745 14.0671 4.32512C14.556 4.12279 15.0799 4.01878 15.6089 4.01904C16.7689 4.01904 17.8159 4.50504 18.5519 5.29104C19.4537 5.11666 20.3184 4.78747 21.1079 4.31804C20.8073 5.24886 20.1777 6.03815 19.3369 6.53804C20.1367 6.44682 20.9183 6.2365 21.6559 5.91404C21.105 6.71714 20.4224 7.42139 19.6369 7.99704V7.99704Z" fill="white"/>
</svg>
