<svg width="270" height="270" viewBox="0 0 270 270" fill="none" xmlns="http://www.w3.org/2000/svg">
<rect width="270" height="270" rx="135" fill="#162031"/>
<path d="M128.268 118.855C128.268 123.029 127.284 126.966 125.315 130.667C123.346 134.369 120.196 137.401 115.865 139.763C111.534 142.047 105.982 143.189 99.2094 143.189H84.3256V176.5H70.8594V94.4031H99.2094C105.509 94.4031 110.825 95.5056 115.156 97.7106C119.566 99.8369 122.834 102.751 124.961 106.452C127.166 110.153 128.268 114.287 128.268 118.855ZM99.2094 132.203C104.328 132.203 108.148 131.061 110.668 128.777C113.188 126.415 114.448 123.107 114.448 118.855C114.448 109.877 109.368 105.389 99.2094 105.389H84.3256V132.203H99.2094ZM186.353 176.5L154.578 139.763V176.5H141.111V94.4031H154.578V131.849L186.471 94.4031H203.363L167.69 135.511L203.954 176.5H186.353Z" fill="#4077AE"/>
<circle cx="135" cy="135" r="127.969" stroke="#4077AE" stroke-width="14.0625"/>
</svg>
