<svg width="100%" viewBox="0 0 32 32" fill="none" xmlns="http://www.w3.org/2000/svg">
<path d="M15.092 13.752C15.092 14.2747 14.966 14.7647 14.714 15.222C14.4713 15.6793 14.084 16.048 13.552 16.328C13.0293 16.608 12.3667 16.748 11.564 16.748H9.926V20.5H7.966V10.728H11.564C12.32 10.728 12.964 10.8587 13.496 11.12C14.028 11.3813 14.4247 11.7407 14.686 12.198C14.9567 12.6553 15.092 13.1733 15.092 13.752ZM11.48 15.166C12.0213 15.166 12.4227 15.0447 12.684 14.802C12.9453 14.55 13.076 14.2 13.076 13.752C13.076 12.8 12.544 12.324 11.48 12.324H9.926V15.166H11.48ZM21.9996 20.5L18.4436 16.146V20.5H16.4836V10.728H18.4436V15.11L21.9996 10.728H24.3656L20.3336 15.572L24.4776 20.5H21.9996Z" fill="#1F1F1F"/>
<circle cx="16" cy="16" r="15.1667" stroke="#1F1F1F" stroke-width="1.66667"/>
</svg>
